**ABCDEFGHIJKLMNOPQRSTUVWXYZabcdefghijklmnopqrstuvwxyz**************************
**PARASOLID !"#$%&'()*+,-./:;<=>?@[\]^_`{|}~0123456789**************************
**PART1;
MC=x64/Windows NT;
MC_MODEL=genuineintel family 6 model 14 stepping 9, intel(r) core(tm) i5-7500 cpu @ 3.40ghz;
MC_ID=hzk-pc;
OS=windows nt (x64);
OS_RELEASE=6.1 windows 7 ultimate (build 7601) service pack 1;
FRU=mdc_ugii_v7.0_djl_can_vrh;
APPL=unigraphics;
SITE=unknown;
USER=Administrator;
FORMAT=text;
GUISE=transmit;
KEY=HK;
FILE=H:\LI\CK\2018.05\2488模具图\CX\HK.x_t;
DATE=28-may-2018;
**PART2;
SCH=SCH_2900123_28101;
USFLD_SIZE=0;
**PART3;
**END_OF_HEADER*****************************************************************
T51 : TRANSMIT FILE created by modeller version 290012323 SCH_2900123_28101_1300
6203 0 10 19 CCCCCCCI4 mesh1006 0 I8 polyline1008 0 CCCCCCCCCCZ1 2 0 0 0 0 0 0 0
 0 0 1e3 1e-8 0 0 0 1 0 1 2 11 255 2 1 0 1 3 4 1 0 0 0 0 12 33 CCCCCCI4 mesh1006
 0 I8 polyline1008 0 CCCCCCCDI5 owner1040 0 CCCCCCI13 boundary_mesh1006 0 I17 bo
undary_polyline1008 0 CCCA16 index_map_offset0 0 1 dA9 index_map82 0 A17 node_id
_index_map82 0 A20 schema_embedding_map82 0 A5 child12 0 A14 lowest_node_id0 0 1
 dZ3 724 5 6 0 0 0 0 0 0 1e3 1e-8 2 0 0 1 0 1 1 7 8 9 10 0 0 11 12 13 0 0 0 0 0
 0 100 255 4 2 2 0 0 1 0 0 0 1 0 0 0 1 0 0 0 1 0 ?81 255 1 5 724 14 3 15 0 0 0 1
6 70 11 CI9 list_type0 0 1 uI10 notransmit0 0 1 lCCCDCCDI12 finger_index0 0 1 dI
12 finger_block1012 0 CZ6 0 4 T3 0 0 4 20 1 17 17 13 255 7 4 0 3 0 18 0 0 19 0 5
1 255 8 438 0 20 21 0 0 +-.115532 -.0445700142 .02415997667467 -1 0 0 .003 0 1 0
 32 255 9 500 0 22 23 0 0 +-.3530785543680365 .041 .04150000000001 0 1 0 -1 0 0
 .01218511934262888 .012 29 255 10 502 0 24 25 0 -.3530785543680185 .041 .053500
00000001 19 8 CCCCCCCA5 owner12 0 Z11 2 0 3 19 0 26 V0 16 255 12 7 27 ?28 0 29 3
0 0 0 3 18 255 13 21 0 31 0 32 33 ?3 17 255 31 0 34 35 28 13 36 37 0 38 -18 32 1
9 0 35 13 39 40 ?3 29 33 257 0 13 40 41 -.285 -.067 -.07349999999999 29 40 255 0
 32 42 33 -.285 -.067 -.06749999999999 29 41 260 0 43 33 44 -.285 -.000370014200
0042 .02715997667467 18 43 25 0 45 46 47 41 ?3 29 44 261 0 46 41 48 -.285 -.0445
700142 .02715997667467 18 46 26 0 49 50 43 44 ?3 29 48 263 0 50 44 51 -.285 -.04
75700142 .02415997667467 18 50 28 0 52 53 46 48 ?3 29 51 265 0 53 48 54 -.285 -.
0475700142 -.03815997667467 18 53 30 0 55 56 50 51 ?3 29 54 267 0 56 51 57 -.285
 -.0445700142 -.04115997667467 18 56 32 0 58 59 53 54 ?3 29 57 269 0 59 54 60 -.
285 -.0003700142000042 -.04115997667467 18 59 34 0 61 62 56 57 ?3 29 60 271 0 62
 57 63 -.285 .002629985799996 -.03815997667467 18 62 36 0 64 65 59 60 ?3 29 63 2
73 0 65 60 66 -.285 .002629985799996 .02415997667467 18 65 38 0 67 68 62 63 ?3 2
9 66 277 0 69 63 70 -.415 -.082 .00400000000001 18 69 43 0 71 72 73 66 ?3 29 70
 278 0 73 66 74 -.4 -.082 .00400000000001 18 73 44 0 75 69 76 70 ?3 29 74 280 0
 72 70 77 -.415 -.082 .05950000000001 18 72 46 0 78 79 69 74 ?3 29 77 283 0 79 7
4 80 -.415 -.082 -.07349999999999 18 79 49 0 81 82 72 77 ?3 29 80 285 0 82 77 83
 -.415 -.082 -.01799999999999 18 82 51 0 84 85 79 80 ?3 29 83 287 0 85 80 86 -.4
 -.082 -.01799999999999 18 85 53 0 87 88 82 83 ?3 29 86 289 0 88 83 89 -.4 -.082
 -.02699999999999 18 88 55 0 90 91 85 86 ?3 29 89 291 0 91 86 92 -.384 -.082 -.0
2699999999999 18 91 57 0 93 94 88 89 ?3 29 92 293 0 94 89 95 -.384 -.082 .013000
00000001 18 94 59 0 96 47 91 92 ?3 29 95 295 0 47 92 97 -.4 -.082 .0130000000000
1 18 47 61 0 98 43 94 95 ?3 29 97 299 0 99 95 100 -.4 -.002 .00400000000001 18 9
9 66 0 101 76 102 97 ?3 29 100 301 0 76 97 103 -.415 -.002 .00400000000001 18 76
 68 0 104 73 99 100 ?3 29 103 305 0 102 100 105 -.4 -.002 .01300000000001 18 102
 73 0 106 99 107 103 ?3 29 105 309 0 107 103 108 -.384 -.002 .01300000000001 18
 107 78 0 109 102 110 105 ?3 29 108 313 0 110 105 111 -.384 -.002 -.026999999999
99 18 110 83 0 112 107 113 108 ?3 29 111 317 0 113 108 114 -.4 -.002 -.026999999
99999 18 113 88 0 115 110 116 111 ?3 29 114 321 0 116 111 117 -.4 -.002 -.017999
99999999 18 116 93 0 118 113 119 114 ?3 29 117 325 0 119 114 120 -.415 -.002 -.0
1799999999999 18 119 98 0 121 116 122 117 ?3 29 120 329 0 123 117 124 -.415 -.00
2 .05350000000001 18 123 103 0 125 126 127 120 ?3 29 124 331 0 126 120 128 -.415
 -.067 .05350000000001 18 126 105 0 129 122 123 124 ?3 29 128 333 0 122 124 130
 -.415 -.067 .05950000000001 18 122 107 0 131 119 126 128 ?3 29 130 337 0 132 12
8 133 -.415 -.067 -.07349999999999 18 132 112 0 134 135 136 130 ?3 29 133 339 0
 135 130 137 -.415 -.067 -.06749999999999 18 135 114 0 138 127 132 133 ?3 29 137
 341 0 127 133 139 -.415 -.002 -.06749999999999 18 127 116 0 140 123 135 137 ?3
 29 139 382 0 141 137 142 -.315 -.0003700142000042 .02715997667467 18 141 169 0
 143 144 145 139 ?3 29 142 384 0 144 139 146 -.315 -.0445700142 .02715997667467
 18 144 171 0 147 24 141 142 ?3 29 146 388 0 145 142 148 -.315 .002629985799996
 .02415997667467 18 145 176 0 149 141 150 146 ?3 29 148 392 0 151 146 152 -.315
 .002629985799996 -.03815997667467 18 151 181 0 153 154 155 148 ?3 29 152 394 0
 154 148 156 -.315 -.0003700142000042 -.04115997667467 18 154 183 0 157 158 151
 152 ?3 29 156 396 0 158 152 159 -.315 -.0445700142 -.04115997667467 18 158 185
 0 160 161 154 156 ?3 29 159 398 0 161 156 162 -.315 -.0475700142 -.038159976674
67 18 161 187 0 163 150 158 159 ?3 29 162 400 0 150 159 164 -.315 -.0475700142 .
02415997667467 18 150 189 0 165 145 161 162 ?3 29 164 403 0 166 162 167 -.315 -.
02795267945401 .01059625 18 166 193 0 168 155 169 164 ?3 29 167 404 0 155 164 17
0 -.315 -.03495267945401 .01059625 18 155 194 0 171 151 166 167 ?3 29 170 407 0
 172 167 173 -.315 -.02795267945401 -.02459625 18 172 198 0 174 169 175 170 ?3 2
9 173 408 0 169 170 176 -.315 -.03495267945401 -.02459625 18 169 199 0 177 166 1
72 173 ?3 29 176 412 0 178 173 179 -.319 -.02795267945401 -.02459625 18 178 204
 0 180 175 181 176 ?3 29 179 414 0 175 176 182 -.319 -.03495267945401 -.02459625
 18 175 206 0 183 172 178 179 ?3 29 182 421 0 181 179 184 -.319 -.02795267945401
 .01059625 18 181 216 0 185 178 186 182 ?3 29 184 422 0 186 182 187 -.319 -.0349
5267945401 .01059625 18 186 217 0 188 181 0 184 ?3 29 187 483 0 136 184 189 -.36
0660614538481 -.002 .05350000000001 18 136 127 0 190 132 191 187 ?3 29 189 484 0
 191 187 192 -.3728457338811455 -.002 .04150000000001 18 191 125 0 193 136 194 1
89 ?3 29 192 489 0 194 189 195 -.372845733881109 -.002 -.05549999999999 18 194 1
23 0 196 191 197 192 ?3 29 195 490 0 197 192 198 -.3606606145384945 -.002 -.0674
9999999999 18 197 121 0 199 194 200 195 ?3 29 198 495 0 200 195 201 -.3530785543
680315 .041 -.06749999999999 18 200 132 0 202 197 203 198 ?3 29 201 496 0 203 19
8 25 -.3652636737106535 .0409999999999973 -.05549999999999 18 203 138 0 204 200
 205 201 ?3 29 25 501 0 205 201 10 -.365263673710683 .041 .04150000000001 18 205
 143 0 206 203 24 25 ?3 17 206 0 207 208 193 205 209 210 0 211 -18 24 148 0 212
 205 144 10 ?3 17 212 0 213 214 215 24 216 217 0 218 -15 255 213 146 0 215 219 0
 17 214 0 213 209 212 205 218 22 0 0 -17 215 0 213 212 209 136 220 221 0 216 -17
 216 0 222 223 224 136 212 217 0 0 +16 217 149 225 ?216 226 227 228 0 0 3 17 218
 0 229 230 211 24 214 22 0 224 +15 229 151 0 230 231 0 17 230 0 229 232 218 233
 224 226 0 0 -17 211 0 229 218 204 205 208 234 0 214 -16 22 147 235 ?218 236 237
 9 0 0 3 17 224 0 222 216 238 24 230 226 0 0 +15 222 154 0 223 239 0 17 238 0 22
2 224 240 233 241 242 0 243 +16 226 152 244 ?224 242 217 245 0 0 3 81 1 244 608
 246 226 0 0 247 225 248 16 242 14 247 ?238 237 226 249 0 0 3 30 255 245 478 0 2
26 250 251 0 +-.285 .041 .05350000000001 -1 0 0 30 250 471 0 210 228 245 0 +-.36
52636737107 .041 .04150000000001 -.1736481776669025 -.984807753012213 0 32 251 4
82 0 221 245 252 0 --.3606606145384995 -.002 .04150000000001 0 1 0 -1 0 0 .01218
511934262888 .012 16 221 126 253 ?220 254 255 251 0 0 3 32 252 488 0 256 251 23
 0 --.3606606145384885 -.002 -.05549999999999 0 1 0 1 0 0 .01218511934262888 .01
2 16 256 122 257 ?258 255 259 252 0 0 3 32 23 494 0 236 252 9 0 +-.3530785543680
26 .041 -.05549999999999 0 1 0 1 0 0 .01218511934262888 .012 16 236 139 260 ?204
 261 22 23 0 0 3 81 1 260 604 246 236 0 0 262 235 263 17 204 0 229 211 202 203 2
64 236 0 265 +16 261 134 262 ?202 266 236 267 0 0 3 81 1 262 603 246 261 0 0 268
 260 269 17 202 0 229 204 232 200 270 261 0 271 +16 266 16 268 ?232 210 261 272
 0 0 3 30 267 445 0 261 273 274 0 +-.285 .041 -.06749999999999 -1 0 0 30 273 437
 0 275 276 267 0 +-.285 -.0475700142 .02415997667467 -1 0 0 30 274 447 0 277 267
 278 0 +-.3606606145385 -.002 -.06749999999999 .1736481776669025 .98480775301221
3 0 16 277 131 279 ?271 280 281 274 0 0 3 30 278 449 0 281 274 282 0 +-.37284573
38811 -.002 -.05549999999999 .1736481776669025 .984807753012213 0 16 281 137 283
 ?265 277 234 278 0 0 3 30 282 451 0 234 278 284 0 +-.3652636737107 .041 .041500
00000001 0 0 -1 16 234 144 285 ?208 281 210 282 0 0 3 30 284 458 0 255 282 286 0
 +-.3728457338811 -.002 .04150000000001 0 0 -1 16 255 124 287 ?288 221 256 284 0
 0 3 30 286 460 0 280 284 289 0 +-.415 -.002 -.06749999999999 1 0 0 16 280 120 2
90 ?199 291 277 286 0 0 3 30 289 467 0 237 286 228 0 +-.3606606145385 -.002 .053
50000000001 -1 0 0 16 237 128 292 ?223 22 242 289 0 0 3 30 228 469 0 217 289 250
 0 +-.353078554368 .041 .05350000000001 -.1736481776669025 -.984807753012213 0 8
1 1 292 606 246 237 0 0 235 247 293 17 223 0 222 129 216 123 190 237 0 0 +17 129
 0 222 240 223 126 294 295 0 296 -17 190 0 297 220 125 136 223 237 0 215 -15 297
 119 0 125 298 0 17 220 0 297 288 190 191 215 221 0 209 +17 125 0 297 190 299 12
3 300 301 0 294 -17 299 0 297 125 302 76 303 304 0 300 -17 300 0 305 306 294 76
 125 301 0 0 +16 301 102 307 ?300 295 308 309 0 0 3 17 294 0 305 300 296 123 129
 295 0 223 +15 305 101 0 78 310 0 17 296 0 305 294 311 126 131 312 0 313 +16 295
 104 314 ?294 312 301 315 0 0 3 81 1 314 583 246 295 0 0 316 307 317 16 312 106
 316 ?296 318 295 319 0 0 3 30 315 330 0 295 309 319 0 +-.415 -.067 .05350000000
001 0 1 0 30 309 328 0 301 320 315 0 +-.415 -.002 .05350000000001 0 0 -1 30 319
 332 0 312 315 321 0 +-.415 -.067 .05950000000001 0 0 -1 30 321 334 0 318 319 32
2 0 +-.415 -.082 .05950000000001 0 1 0 16 318 108 323 ?311 324 312 321 0 0 3 30
 322 336 0 325 321 326 0 +-.415 -.067 -.07349999999999 0 -1 0 16 325 111 327 ?32
8 329 254 322 0 0 3 30 326 338 0 329 322 330 0 +-.415 -.067 -.06749999999999 0 0
 -1 16 329 113 331 ?332 333 325 326 0 0 3 30 330 340 0 333 326 334 0 +-.415 -.00
2 -.06749999999999 0 -1 0 16 333 115 335 ?336 337 329 330 0 0 3 30 334 342 0 337
 330 338 0 +-.415 -.002 -.01799999999999 0 0 -1 16 337 117 339 ?340 308 333 334
 0 0 3 30 338 356 0 291 334 341 0 +-.285 -.067 -.06749999999999 -1 0 0 16 291 13
3 342 ?343 344 280 338 0 0 3 30 341 373 0 345 338 346 0 +-.285 -.067 .0535000000
0001 -1 0 0 16 345 155 347 ?313 227 348 341 0 0 3 30 346 375 0 349 341 350 0 +-.
285 -.067 .05950000000001 -1 0 0 16 349 158 351 ?352 348 353 346 0 0 3 30 350 37
8 0 354 346 355 0 +-.285 -.067 -.07349999999999 -1 0 0 16 354 163 356 ?357 353 3
7 350 0 0 3 30 355 381 0 358 350 359 0 +-.285 -.0003700142000042 .02715997667467
 -1 0 0 16 358 168 360 ?361 362 363 355 0 0 3 30 359 383 0 363 355 364 0 +-.315
 -.0003700142000042 .02715997667467 0 -1 0 16 363 170 365 ?147 358 366 359 0 0 3
 30 364 385 0 362 359 367 0 +-.285 -.0445700142 .02715997667467 -1 0 0 16 362 17
2 368 ?369 370 358 364 0 0 3 31 255 367 387 0 371 364 372 0 +-.315 -.00037001420
00042 .02415997667467 1 0 0 0 1 0 .003 16 371 175 373 ?374 375 376 367 0 0 3 30
 372 389 0 377 367 378 0 +-.285 .002629985799996 .02415997667467 -1 0 0 16 377 1
77 379 ?149 380 381 372 0 0 3 30 378 391 0 375 372 382 0 +-.315 .002629985799996
 -.03815997667467 0 0 1 16 375 180 383 ?384 385 371 378 0 0 3 31 382 393 0 385 3
78 386 0 +-.315 -.0003700142000042 -.03815997667467 1 0 0 0 0 -1 .003 16 385 182
 387 ?388 389 375 382 0 0 3 30 386 395 0 389 382 390 0 +-.315 -.0445700142 -.041
15997667467 0 1 0 16 389 184 391 ?392 393 385 386 0 0 3 31 390 397 0 393 386 394
 0 +-.315 -.0445700142 -.03815997667467 1 0 0 0 -1 0 .003 16 393 186 395 ?396 39
7 389 390 0 0 3 30 394 399 0 397 390 398 0 +-.315 -.0475700142 .02415997667467 0
 0 -1 16 397 188 399 ?400 366 393 394 0 0 3 31 398 401 0 366 394 401 0 +-.315 -.
0445700142 .02415997667467 1 0 0 0 0 1 .003 16 366 190 402 ?403 363 397 398 0 0
 3 31 401 402 0 404 398 405 0 +-.315 -.03145267945401 .01059625 1 0 0 0 1 0 .003
5 16 404 192 406 ?407 408 409 401 0 0 3 31 405 405 0 410 401 411 0 +-.315 -.0314
5267945401 .01059625 1 0 0 0 -1 0 .0035 16 410 195 412 ?168 409 380 405 0 0 3 31
 411 406 0 413 405 414 0 +-.315 -.03145267945401 -.02459625 1 0 0 0 1 0 .0035 16
 413 197 415 ?416 376 417 411 0 0 3 31 414 409 0 418 411 419 0 +-.315 -.03145267
945401 -.02459625 1 0 0 0 -1 0 .0035 16 418 200 420 ?174 417 421 414 0 0 3 30 41
9 411 0 417 414 422 0 +-.315 -.02795267945401 -.02459625 -1 0 0 16 417 203 423 ?
424 413 418 419 0 0 3 31 422 413 0 425 419 426 0 +-.319 -.03145267945401 -.02459
625 1 0 0 0 1 0 .0035 16 425 205 427 ?183 421 428 422 0 0 3 30 426 415 0 376 422
 429 0 +-.315 -.03495267945401 -.02459625 -1 0 0 16 376 207 430 ?431 371 413 426
 0 0 3 31 429 417 0 421 426 432 0 +-.319 -.03145267945401 -.02459625 1 0 0 0 -1
 0 .0035 16 421 210 433 ?434 418 425 429 0 0 3 31 432 420 0 435 429 436 0 +-.319
 -.03145267945401 .01059625 1 0 0 0 1 0 .0035 16 435 215 437 ?188 428 408 432 0
 0 3 31 436 423 0 428 432 438 0 +-.319 -.03145267945401 .01059625 1 0 0 0 -1 0 .
0035 16 428 218 439 ?440 425 435 436 0 0 3 30 438 425 0 409 436 441 0 +-.315 -.0
2795267945401 .01059625 -1 0 0 16 409 221 442 ?443 404 410 438 0 0 3 30 441 426
 0 408 438 444 0 +-.315 -.03495267945401 .01059625 -1 0 0 16 408 222 445 ?446 43
5 404 441 0 0 3 30 444 429 0 381 441 447 0 +-.285 .002629985799996 -.03815997667
467 -1 0 0 16 381 227 448 ?449 377 450 444 0 0 3 30 447 431 0 451 444 452 0 +-.2
85 -.0003700142000042 -.04115997667467 -1 0 0 16 451 230 453 ?454 450 455 447 0
 0 3 30 452 433 0 455 447 276 0 +-.285 -.0445700142 -.04115997667467 -1 0 0 16 4
55 233 456 ?457 451 458 452 0 0 3 30 276 435 0 459 452 273 0 +-.285 -.0475700142
 -.03815997667467 -1 0 0 16 459 236 460 ?461 458 275 276 0 0 3 81 1 460 648 246
 459 0 0 462 463 464 17 461 0 465 165 55 161 466 459 0 0 +16 458 29 462 ?55 455
 459 467 0 0 3 16 275 239 463 ?468 459 0 273 0 0 3 81 1 463 649 246 275 0 0 460
 469 470 17 468 0 471 472 473 150 474 275 0 0 +15 471 241 0 475 20 0 17 472 0 47
1 475 468 144 403 366 0 0 -17 473 0 471 468 475 50 476 477 0 474 -17 474 0 465 5
5 165 50 468 275 0 0 -15 465 238 0 55 478 0 17 55 0 465 461 474 53 52 458 0 479
 +17 165 0 465 474 461 150 400 397 0 403 -17 400 0 480 396 403 161 165 397 0 461
 +17 403 0 480 400 147 150 472 366 0 468 +15 480 179 0 147 481 482 17 147 0 480
 403 374 144 143 363 0 369 +17 374 0 480 147 384 141 483 371 0 0 +17 143 0 484 4
85 369 141 147 363 0 361 -17 369 0 484 143 49 144 475 362 0 472 +15 484 167 0 49
 486 0 17 49 0 484 369 485 46 45 370 0 476 +17 475 0 471 473 472 46 369 362 0 0
 -17 485 0 484 49 143 43 361 358 0 0 -17 45 0 487 488 476 43 49 370 0 489 -16 37
0 24 490 ?49 491 362 492 0 0 3 17 476 0 487 45 52 46 473 477 0 475 +15 487 23 0
 488 18 0 17 52 0 487 476 479 50 55 458 0 473 -16 477 27 493 ?476 494 495 496 0
 0 3 81 1 493 558 246 477 0 0 497 498 499 16 494 31 497 ?479 500 477 501 0 0 3 1
6 495 62 498 ?502 477 503 504 0 0 3 31 496 262 0 477 492 467 0 +-.285 -.04457001
42 .02415997667467 -1 0 0 0 -1 0 .003 30 492 259 0 370 505 496 0 +-.285 -.000370
0142000042 .02715997667467 0 -1 0 30 467 264 0 458 496 501 0 +-.285 -.0475700142
 .02415997667467 0 0 -1 31 501 266 0 494 467 506 0 +-.285 -.0445700142 -.0381599
7667467 -1 0 0 0 0 -1 .003 30 506 268 0 450 501 507 0 +-.285 -.0445700142 -.0411
5997667467 0 1 0 16 450 33 508 ?61 381 451 506 0 0 3 31 507 270 0 500 506 509 0
 +-.285 -.0003700142000042 -.03815997667467 -1 0 0 0 1 0 .003 16 500 35 510 ?511
 29 494 507 0 0 3 30 509 272 0 380 507 512 0 +-.285 .002629985799996 -.038159976
67467 0 0 1 16 380 37 513 ?67 410 377 509 0 0 3 31 512 274 0 29 509 514 0 +-.285
 -.0003700142000042 .02415997667467 -1 0 0 0 0 1 .003 16 29 39 515 ?488 12 500 5
12 0 0 3 30 514 276 0 516 512 517 0 +-.415 -.082 .00400000000001 1 0 0 16 516 42
 518 ?75 519 304 514 0 0 3 30 517 279 0 324 514 520 0 +-.415 -.082 .004000000000
01 0 0 1 16 324 45 521 ?78 522 318 517 0 0 3 30 520 281 0 519 517 523 0 +-.285 -
.082 .05950000000001 -1 0 0 16 519 47 524 ?525 526 516 520 0 0 3 30 523 282 0 49
1 520 527 0 +-.285 -.082 -.07349999999999 -1 0 0 16 491 48 528 ?81 37 370 523 0
 0 3 30 527 284 0 254 523 529 0 +-.415 -.082 -.07349999999999 0 0 1 16 254 50 53
0 ?84 325 221 527 0 0 3 30 529 286 0 522 527 531 0 +-.415 -.082 -.01799999999999
 1 0 0 16 522 52 532 ?87 533 324 529 0 0 3 30 531 288 0 526 529 534 0 +-.4 -.082
 -.02699999999999 0 0 1 16 526 54 535 ?536 537 519 531 0 0 3 30 534 290 0 537 53
1 538 0 +-.384 -.082 -.02699999999999 -1 0 0 16 537 56 539 ?540 541 526 534 0 0
 3 30 538 292 0 541 534 542 0 +-.384 -.082 .01300000000001 0 0 -1 16 541 58 543
 ?544 503 537 538 0 0 3 30 542 294 0 503 538 504 0 +-.4 -.082 .01300000000001 1
 0 0 16 503 60 545 ?546 495 541 542 0 0 3 30 504 296 0 495 542 547 0 +-.4 -.082
 .00400000000001 0 0 1 30 547 298 0 548 504 549 0 +-.4 -.002 .00400000000001 0 -
1 0 16 548 65 550 ?551 304 552 547 0 0 3 30 549 300 0 304 547 553 0 +-.415 -.002
 .00400000000001 1 0 0 16 304 67 554 ?303 516 548 549 0 0 3 30 553 302 0 308 549
 555 0 +-.415 -.002 .00400000000001 0 -1 0 16 308 69 556 ?306 301 337 553 0 0 3
 30 555 304 0 557 553 558 0 +-.4 -.002 .01300000000001 0 -1 0 16 557 72 559 ?560
 552 561 555 0 0 3 30 558 306 0 552 555 562 0 +-.4 -.002 .00400000000001 0 0 1 1
6 552 74 563 ?564 548 557 558 0 0 3 30 562 308 0 565 558 566 0 +-.384 -.002 .013
00000000001 0 -1 0 16 565 77 567 ?568 561 569 562 0 0 3 30 566 310 0 561 562 570
 0 +-.4 -.002 .01300000000001 1 0 0 16 561 79 571 ?572 557 565 566 0 0 3 30 570
 312 0 573 566 574 0 +-.384 -.002 -.02699999999999 0 -1 0 16 573 82 575 ?576 569
 577 570 0 0 3 30 574 314 0 569 570 578 0 +-.384 -.002 .01300000000001 0 0 -1 16
 569 84 579 ?580 565 573 574 0 0 3 30 578 316 0 581 574 582 0 +-.4 -.002 -.02699
999999999 0 -1 0 16 581 87 583 ?584 577 585 578 0 0 3 30 582 318 0 577 578 586 0
 +-.384 -.002 -.02699999999999 -1 0 0 16 577 89 587 ?588 573 581 582 0 0 3 30 58
6 320 0 589 582 590 0 +-.4 -.002 -.01799999999999 0 -1 0 16 589 92 591 ?592 585
 533 586 0 0 3 30 590 322 0 585 586 593 0 +-.4 -.002 -.02699999999999 0 0 1 16 5
85 94 594 ?595 581 589 590 0 0 3 30 593 324 0 533 590 320 0 +-.415 -.002 -.01799
999999999 0 -1 0 16 533 97 596 ?597 589 522 593 0 0 3 30 320 326 0 259 593 309 0
 +-.415 -.002 -.01799999999999 1 0 0 16 259 99 598 ?599 256 344 320 0 0 3 81 1 5
98 594 246 259 0 0 257 600 601 17 599 0 297 602 603 116 121 259 0 0 +16 344 18 6
00 ?604 259 291 605 0 0 3 81 1 600 595 246 344 0 0 598 342 606 17 604 0 607 343
 270 32 608 344 0 609 +30 605 254 0 344 272 610 0 +-.285 .041 -.06749999999999 0
 -1 0 30 272 252 0 266 249 605 0 +-.285 .041 .05350000000001 0 0 -1 30 610 256 0
 353 605 505 0 +-.285 -.067 -.06749999999999 0 0 -1 16 353 20 611 ?38 349 354 61
0 0 0 3 30 505 258 0 37 610 492 0 +-.285 -.067 -.07349999999999 0 -1 0 16 37 22
 612 ?36 354 491 505 0 0 3 81 1 612 616 246 37 0 0 356 528 613 17 36 0 614 81 61
5 68 31 37 0 28 +15 614 165 0 36 616 0 17 81 0 614 134 36 79 617 491 0 618 +17 6
15 0 614 36 134 13 357 354 0 0 -18 68 9 0 36 619 65 620 ?3 17 28 0 34 31 621 68
 622 12 0 617 +15 34 6 0 31 18 487 17 621 0 34 28 623 619 624 348 0 622 -17 622
 0 625 525 617 619 28 12 0 626 -17 617 0 625 622 618 68 81 491 0 0 -15 625 41 0
 502 627 0 17 618 0 625 617 628 79 84 254 0 328 -17 628 0 625 618 536 82 87 522
 0 597 -17 84 0 629 630 328 82 618 254 0 628 +17 328 0 629 84 332 79 134 325 0 0
 +15 629 110 0 340 631 0 17 332 0 629 328 336 132 138 329 0 357 +17 134 0 614 61
5 81 132 328 325 0 332 -17 336 0 629 332 340 135 140 333 0 343 +17 138 0 632 609
 357 135 332 329 0 336 -17 357 0 632 138 38 132 615 354 0 0 +15 632 162 0 38 633
 0 17 38 0 632 357 609 13 35 353 0 615 +17 609 0 632 38 138 32 343 291 0 0 -17 3
5 0 34 608 31 32 38 353 0 604 -17 608 0 34 243 35 39 604 344 0 270 -17 243 0 34
 241 608 233 232 266 0 230 -18 39 17 0 232 32 233 42 ?3 17 270 0 607 604 271 39
 202 261 0 0 -15 607 130 0 270 634 0 17 271 0 607 270 199 200 635 277 0 264 +17
 199 0 607 271 140 197 636 280 0 258 +17 635 0 637 196 264 197 271 277 0 0 -17 2
64 0 637 635 265 200 204 236 0 0 -15 637 136 0 264 638 0 17 265 0 637 264 196 20
3 639 281 0 208 +17 196 0 637 265 635 194 258 256 0 288 -17 639 0 207 193 208 19
4 265 281 0 0 -17 208 0 207 639 206 203 211 234 0 0 +15 207 141 0 208 640 0 14 2
55 640 140 641 ?219 638 207 7 642 +0 0 219 638 26 81 1 641 701 643 640 644 0 645
 646 647 14 219 145 646 ?231 640 213 7 648 +0 0 231 640 26 14 638 135 645 ?640 6
34 637 7 649 +0 0 640 634 26 50 255 642 362 0 640 649 648 0 +-.3691845654039 .01
876351822333 -.00699999999999 -.984807753012213 .1736481776669025 0 -.1736481776
669025 -.984807753012213 0 13 26 3 0 0 0 0 0 0 11 18 14 18 5 650 ?627 0 34 7 651
 -0 0 627 0 26 81 1 650 687 643 18 469 0 0 652 653 14 627 40 652 ?654 18 625 7 6
55 +0 0 654 18 26 50 651 242 0 18 0 655 0 +-.285 -.11 0 -1 0 0 0 0 1 50 655 275
 0 627 651 656 0 +-.285 -.082 .05350000000001 0 -1 0 0 0 -1 50 656 297 0 654 655
 657 0 +-.415 -.002 .00400000000001 0 0 1 -1 0 0 14 654 63 658 ?659 627 660 7 65
6 -0 0 659 627 26 50 657 303 0 659 656 661 0 +-.4 -.002 .00400000000001 -1 0 0 0
 0 -1 14 659 70 662 ?663 654 664 7 657 -0 0 663 654 26 50 661 307 0 663 657 665
 0 +-.4 -.002 .01300000000001 0 0 1 -1 0 0 14 663 75 666 ?667 659 668 7 661 -0 0
 667 659 26 50 665 311 0 667 661 669 0 +-.384 -.002 .01300000000001 1 0 0 0 0 1
 14 667 80 670 ?671 663 672 7 665 -0 0 671 663 26 50 669 315 0 671 665 673 0 +-.
384 -.002 -.02699999999999 0 0 -1 1 0 0 14 671 85 674 ?675 667 676 7 669 -0 0 67
5 667 26 50 673 319 0 675 669 677 0 +-.4 -.002 -.02699999999999 -1 0 0 0 0 -1 14
 675 90 678 ?679 671 680 7 673 -0 0 679 671 26 50 677 323 0 679 673 681 0 +-.4 -
.002 -.01799999999999 0 0 -1 1 0 0 14 679 95 682 ?310 675 683 7 677 -0 0 310 675
 26 50 681 327 0 310 677 684 0 +-.415 0 0 -1 0 0 0 1 0 14 310 100 685 ?631 679 3
05 7 681 +0 0 631 679 26 50 684 335 0 631 681 686 0 +-.415 0 0 -1 0 0 0 1 0 14 6
31 109 687 ?298 310 629 7 684 +0 0 298 310 26 50 686 343 0 298 684 688 0 +-.383
 -.002 .05350000000001 0 1 0 0 0 1 14 298 118 689 ?634 631 297 7 686 +0 0 634 63
1 26 50 688 353 0 634 686 649 0 +-.285 .028 -.06749999999999 0 0 -1 0 1 0 14 634
 129 690 ?638 298 607 7 688 +0 0 638 298 26 51 649 358 0 638 688 642 0 +-.403039
5347975 -.2423428 -.05549999999999 .1736481776669025 .984807753012213 0 .012 0 0
 1 81 1 690 699 643 634 691 0 689 645 692 80 255 1 643 0 693 8001 0 0 0 0 3 5 0
 0 0 FFFFTFTFFFFFFF2 81 1 691 662 246 634 0 690 694 695 696 81 1 689 698 643 298
 694 0 687 690 697 81 1 645 700 643 638 695 0 690 641 698 83 255 3 692 .5960784
 .6666667 .6862745 81 1 695 663 246 638 0 645 691 644 699 83 3 698 .5960784 .666
6667 .6862745 80 1 246 700 701 9000 1 1 1 1 1 1 1 1 0 FFFFTFTFFFFFFF3 81 1 644 6
64 246 640 0 641 695 702 703 84 255 32 699 401e09f1dbdcc25cb4af61f0a2ed61de81 1
 702 665 246 219 0 646 644 704 705 84 32 703 1fe439852b58db1aaa242a06c2654e4481
 1 646 702 643 219 702 0 641 706 707 81 1 704 666 246 231 0 706 702 708 709 84 3
2 705 a952024080884bb9ceb451197e10757b14 231 150 706 ?239 219 229 7 710 +0 0 239
 219 26 81 1 706 703 643 231 704 0 646 711 712 81 1 708 667 246 239 0 711 704 71
3 714 84 32 709 08eb6e50155ebe3741a6ae1e8913c9cc14 239 153 711 ?715 231 222 7 71
6 +0 0 715 231 26 81 1 711 704 643 239 708 0 706 717 718 81 1 713 668 246 715 0
 717 708 719 720 84 32 714 840a2d557d466ca1432d73cc21a556a114 715 156 717 ?721 2
39 722 7 723 +0 0 721 239 26 81 1 717 705 643 715 713 0 711 724 725 81 1 719 669
 246 721 0 724 713 726 727 84 32 720 3f07fffa369ab4d80e061caeb45ec4e214 721 159
 724 ?633 715 728 7 729 +0 0 633 715 26 81 1 724 706 643 721 719 0 717 730 731 8
1 1 726 670 246 633 0 730 719 732 733 84 32 727 aadc258583eef9749f3e25d2ae933e85
14 633 161 730 ?616 721 632 7 734 +0 0 616 721 26 81 1 730 707 643 633 726 0 724
 735 736 81 1 732 671 246 616 0 735 726 737 738 84 32 733 5c8a320cfe526ddf898cb0
5dca43433814 616 164 735 ?486 633 614 7 739 +0 0 486 633 26 81 1 735 708 643 616
 732 0 730 740 741 81 1 737 672 246 486 0 740 732 742 743 84 32 738 a849a8f5e4dd
d4ebf44b0717c3a67c0514 486 166 740 ?744 616 484 7 745 -0 0 744 616 26 81 1 740 7
09 643 486 737 0 735 746 747 81 1 742 673 246 744 0 746 737 748 749 84 32 743 53
27374228487552c66978424a096f2814 744 173 746 ?481 486 750 7 751 -0 0 481 486 26
 81 1 746 710 643 744 742 0 740 752 753 81 1 748 674 246 481 0 752 742 754 755 8
4 32 749 367aa535e015aa6c1ba52ef142885fa214 481 178 752 ?756 744 480 7 757 -0 0
 756 744 26 81 1 752 711 643 481 748 0 746 758 759 81 1 754 675 246 756 0 758 74
8 760 761 84 32 755 279c0749bfe9526154e43b9845e6e48a14 756 201 758 ?762 481 763
 7 764 -0 0 762 481 26 81 1 758 712 643 756 754 0 752 765 766 81 1 760 676 246 7
62 0 765 754 767 768 84 32 761 fbd9cd832707578762cae497cd4b681514 762 208 765 ?7
69 756 770 7 771 -0 0 769 756 26 81 1 765 713 643 762 760 0 758 772 773 81 1 767
 677 246 769 0 772 760 774 775 84 32 768 b65cda6d32ac7e93b3b812ba0d9c98b814 769
 211 772 ?776 762 777 7 778 +0 0 776 762 26 81 1 772 714 643 769 767 0 765 779 7
80 81 1 774 678 246 776 0 779 767 781 782 84 32 775 d52917a6ca4643980f2240907348
707b14 776 213 779 ?783 769 784 7 785 +0 0 783 769 26 81 1 779 715 643 776 774 0
 772 786 787 81 1 781 679 246 783 0 786 774 788 789 84 32 782 8cf36fc26344cfcc2e
eeb7bad9af40e414 783 219 786 ?790 776 791 7 792 -0 0 790 776 26 81 1 786 716 643
 783 781 0 779 793 794 81 1 788 680 246 790 0 793 781 795 796 84 32 789 dea6b5a4
e3a592a1ee8dc8ba7f43a32214 790 223 793 ?797 783 798 7 799 -0 0 797 783 26 81 1 7
93 717 643 790 788 0 786 800 801 81 1 795 681 246 797 0 800 788 802 803 84 32 79
6 d82e75ba98d202f4fa2d19eb89736faa14 797 225 800 ?804 790 805 7 806 -0 0 804 790
 26 81 1 800 718 643 797 795 0 793 807 808 81 1 802 682 246 804 0 807 795 809 81
0 84 32 803 ae113266583105c0ec6883c446f8031914 804 228 807 ?811 797 812 7 813 -0
 0 811 797 26 81 1 807 719 643 804 802 0 800 814 815 81 1 809 683 246 811 0 814
 802 816 817 84 32 810 2db253131e9019495336d2f029cf784414 811 231 814 ?818 804 8
19 7 820 -0 0 818 804 26 81 1 814 720 643 811 809 0 807 821 822 81 1 816 684 246
 818 0 821 809 823 824 84 32 817 6d851147de1452c71da6766fa8297cc114 818 234 821
 ?478 811 825 7 826 -0 0 478 811 26 81 1 821 721 643 818 816 0 814 827 828 81 1
 823 685 246 478 0 827 816 829 830 84 32 824 1c55e5723b562b6192ac8ae99b61b85414
 478 237 827 ?20 818 465 7 21 -0 0 20 818 26 81 1 827 722 643 478 823 0 821 831
 832 81 1 829 686 246 20 0 831 823 0 833 84 32 830 f062db76406dcbbd35c6a482a33b2
d2514 20 240 831 ?0 478 471 7 8 -0 0 0 478 26 81 1 831 723 643 20 829 0 827 0 83
4 84 32 833 bef8e25b2768498ea6d538a643c22a0a83 3 834 .5960784 .6666667 .6862745
 83 3 832 .5960784 .6666667 .6862745 50 21 436 0 478 826 8 0 +-.285 -.0475700142
 .02715997667467 0 -1 0 0 0 1 51 826 434 0 818 820 21 0 +-.115532 -.0445700142 -
.03815997667467 -1 0 0 .003 0 0 1 50 820 432 0 811 813 826 0 +-.285 -.0475700142
 -.04115997667467 0 0 -1 0 -1 0 51 813 430 0 804 806 820 0 +-.115532 -.000370014
2000042 -.03815997667467 -1 0 0 .003 0 -1 0 50 806 428 0 797 799 813 0 +-.285 .0
02629985799996 -.04115997667467 0 1 0 0 0 -1 51 799 427 0 790 792 806 0 +-.315 -
.03145267945401 .01059625 1 0 0 .0035 0 -1 0 51 792 424 0 783 785 799 0 +-.315 -
.03145267945401 .01059625 1 0 0 .0035 0 -1 0 50 785 419 0 776 778 792 0 +-.319 0
 0 1 0 0 0 -1 0 50 778 418 0 769 771 785 0 +-.319 0 0 1 0 0 0 -1 0 51 771 416 0
 762 764 778 0 +-.315 -.03145267945401 -.02459625 1 0 0 .0035 0 -1 0 51 764 410
 0 756 757 771 0 +-.315 -.03145267945401 -.02459625 1 0 0 .0035 0 -1 0 50 757 39
0 0 481 751 764 0 +-.315 0 0 -1 0 0 0 1 0 51 751 386 0 744 745 757 0 +-.115532 -
.0003700142000042 .02415997667467 -1 0 0 .003 0 0 -1 50 745 380 0 486 739 751 0
 +-.285 .002629985799996 .02715997667467 0 0 1 0 1 0 50 739 379 0 616 734 745 0
 +-.285 -.067 -.07349999999999 0 0 -1 0 1 0 50 734 377 0 633 729 739 0 +-.285 -.
067 -.06749999999999 0 1 0 0 0 1 50 729 376 0 721 723 734 0 +-.285 -.082 .059500
00000001 0 0 1 0 -1 0 50 723 374 0 715 716 729 0 +-.285 -.067 .05950000000001 0
 1 0 0 0 1 50 716 372 0 239 710 723 0 +-.285 -.067 .05350000000001 0 0 1 0 -1 0
 50 710 370 0 231 648 716 0 +-.285 .041 .05350000000001 0 1 0 0 0 1 51 648 366 0
 219 642 710 0 +-.3248057925657 .2013428 .04150000000001 -.1736481776669025 -.98
4807753012213 0 .012 0 0 -1 83 3 828 .5960784 .6666667 .6862745 15 825 235 0 466
 818 0 17 466 0 825 835 163 53 461 459 0 0 -17 835 0 825 457 466 56 479 494 0 83
6 -17 163 0 825 466 457 161 396 393 0 400 -17 457 0 825 163 835 158 836 455 0 0
 +17 396 0 480 392 400 158 163 393 0 457 +17 392 0 480 388 396 154 160 389 0 454
 +17 388 0 480 384 392 151 157 385 0 449 +17 160 0 819 836 454 158 392 389 0 396
 -17 454 0 819 160 61 154 837 451 0 0 +15 819 232 0 160 811 0 17 61 0 819 454 83
6 59 58 450 0 511 +17 837 0 812 838 157 59 454 451 0 0 -15 812 229 0 837 804 0 1
7 838 0 812 449 837 62 511 500 0 839 -17 157 0 812 837 449 154 388 385 0 392 -17
 449 0 812 157 838 151 839 381 0 0 +17 839 0 805 67 153 62 449 381 0 0 -15 805 2
26 0 153 797 0 17 67 0 805 149 839 65 64 380 0 488 +17 153 0 805 839 149 151 384
 375 0 388 -17 149 0 805 153 67 145 840 377 0 483 +17 384 0 480 374 388 145 153
 375 0 0 +17 840 0 750 489 483 65 149 377 0 0 -17 483 0 750 840 361 145 374 371
 0 384 -15 750 174 0 840 744 0 17 361 0 750 483 489 141 485 358 0 374 +17 489 0
 750 361 840 43 488 29 0 485 -17 488 0 487 64 45 65 489 29 0 840 +17 64 0 487 51
1 488 62 67 380 0 838 -17 511 0 487 58 64 59 838 500 0 837 +17 58 0 487 479 511
 56 61 450 0 835 -17 479 0 487 52 58 53 835 494 0 466 +17 836 0 819 61 160 56 45
7 455 0 0 -83 3 822 .5960784 .6666667 .6862745 83 3 815 .5960784 .6666667 .68627
45 83 3 808 .5960784 .6666667 .6862745 83 3 801 .5960784 .6666667 .6862745 15 79
8 224 0 443 790 0 17 443 0 798 841 168 181 842 409 0 0 +17 841 0 798 843 443 186
 440 428 0 446 -17 168 0 798 443 843 166 171 410 0 844 +17 842 0 791 407 185 166
 443 409 0 0 -15 791 220 0 446 783 0 17 407 0 791 446 842 155 844 404 0 843 +17
 185 0 791 842 446 181 188 435 0 440 -17 446 0 791 185 407 186 843 408 0 0 +17 1
88 0 784 440 440 186 185 435 0 841 +17 440 0 784 188 188 181 841 428 0 443 +15 7
84 214 0 440 776 0 17 843 0 798 168 841 155 446 408 0 0 -17 844 0 482 171 171 16
6 407 404 0 842 -15 482 191 0 171 481 845 17 171 0 482 844 844 155 168 410 0 407
 -15 845 196 0 177 481 0 17 177 0 845 846 846 169 174 418 0 416 -17 846 0 845 17
7 177 172 416 413 0 847 -17 174 0 770 424 848 172 177 418 0 846 +17 416 0 763 43
1 847 169 846 413 0 848 +15 763 202 0 431 756 0 17 431 0 763 180 416 175 848 376
 0 849 +17 847 0 763 416 180 172 424 417 0 0 -17 848 0 770 174 849 169 431 376 0
 0 -15 770 209 0 424 762 0 17 849 0 770 848 424 175 434 421 0 0 -17 424 0 770 84
9 174 178 847 417 0 434 +17 434 0 777 183 183 178 849 421 0 0 +15 777 212 0 434
 769 0 17 183 0 777 434 434 175 180 425 0 431 +17 180 0 763 847 431 178 183 425
 0 424 -83 3 794 .5960784 .6666667 .6862745 83 3 787 .5960784 .6666667 .6862745
 83 3 780 .5960784 .6666667 .6862745 83 3 773 .5960784 .6666667 .6862745 83 3 76
6 .5960784 .6666667 .6862745 83 3 759 .5960784 .6666667 .6862745 83 3 753 .59607
84 .6666667 .6862745 83 3 747 .5960784 .6666667 .6862745 83 3 741 .5960784 .6666
667 .6862745 83 3 736 .5960784 .6666667 .6862745 83 3 731 .5960784 .6666667 .686
2745 15 728 160 0 624 721 0 17 624 0 728 352 626 850 621 348 0 623 +17 352 0 728
 851 624 122 852 349 0 0 +17 626 0 728 624 851 619 525 519 0 0 -18 850 11 0 624
 853 619 854 ?3 16 348 10 855 ?624 345 349 856 0 0 3 17 623 0 34 621 241 850 857
 227 0 852 -17 241 0 34 623 243 853 238 242 0 240 -17 857 0 722 313 852 853 623
 227 0 241 +16 227 12 858 ?857 217 345 859 0 0 3 17 852 0 722 857 131 850 352 34
9 0 0 -15 722 157 0 857 715 0 17 131 0 722 852 313 122 296 312 0 311 -17 313 0 7
22 131 857 126 240 345 0 0 +17 311 0 305 296 78 122 851 318 0 352 +17 78 0 305 3
11 306 72 71 324 0 525 +17 851 0 728 626 352 72 311 318 0 0 -17 306 0 305 78 300
 69 104 308 0 0 +17 71 0 625 75 525 69 78 324 0 860 -17 525 0 625 71 622 72 626
 519 0 851 +17 75 0 625 502 71 73 860 516 0 861 +17 860 0 660 104 551 69 75 516
 0 306 -15 660 64 0 104 654 0 17 104 0 660 303 860 76 306 308 0 299 -17 551 0 66
0 860 303 73 101 548 0 0 +17 303 0 660 551 104 99 299 304 0 302 +17 101 0 664 56
4 861 99 551 548 0 303 -15 664 71 0 101 659 0 17 564 0 664 560 101 102 302 552 0
 862 +17 861 0 664 101 560 73 502 495 0 551 -17 560 0 664 861 564 47 106 557 0 0
 +17 502 0 625 546 75 47 861 495 0 560 +17 546 0 625 544 502 94 98 503 0 568 +17
 544 0 625 540 546 91 96 541 0 576 +17 98 0 668 106 568 47 546 503 0 502 -17 568
 0 668 98 572 94 109 565 0 0 +15 668 76 0 106 663 0 17 572 0 668 568 106 107 862
 561 0 863 +17 109 0 672 580 96 107 568 565 0 572 -15 672 81 0 109 667 0 17 580
 0 672 576 109 110 863 569 0 864 +17 96 0 672 109 576 94 544 541 0 546 -17 576 0
 672 96 580 91 112 573 0 0 +17 112 0 676 588 93 110 576 573 0 580 -15 676 86 0 1
12 671 0 17 588 0 676 584 112 113 864 577 0 602 +17 93 0 676 112 584 91 540 537
 0 544 -17 584 0 676 93 588 88 115 581 0 0 +17 540 0 625 536 544 88 93 537 0 584
 +17 536 0 625 628 540 85 90 526 0 592 +17 90 0 680 115 592 88 536 526 0 540 -17
 592 0 680 90 595 85 118 589 0 0 +15 680 91 0 115 675 0 17 595 0 680 592 115 116
 602 585 0 599 +17 118 0 683 121 87 116 592 589 0 595 -15 683 96 0 118 679 0 17
 121 0 683 597 118 119 599 259 0 630 -17 87 0 683 118 597 85 628 522 0 536 +17 5
97 0 683 87 121 82 630 533 0 0 +17 630 0 629 340 84 119 597 533 0 603 -17 340 0
 629 336 630 127 603 337 0 636 +17 603 0 297 599 636 119 340 337 0 0 -17 636 0 2
97 603 258 127 199 280 0 0 -17 258 0 297 636 288 197 196 256 0 635 +17 288 0 297
 258 220 194 193 255 0 639 +17 193 0 207 206 639 191 288 255 0 220 -17 115 0 680
 595 90 113 584 581 0 588 -17 602 0 297 864 599 113 595 585 0 0 -17 864 0 297 86
3 602 110 588 577 0 0 -17 863 0 297 862 864 107 580 569 0 0 -17 862 0 297 302 86
3 102 572 561 0 0 -17 302 0 297 299 862 99 564 552 0 0 -17 106 0 668 572 98 102
 560 557 0 564 -17 240 0 222 238 129 853 313 345 0 0 -18 853 13 0 857 233 850 86
5 ?3 18 233 15 0 238 39 853 866 ?3 29 865 249 0 853 854 866 -.285 -.067 .0535000
0000001 29 854 247 0 850 620 865 -.285 -.067 .05950000000001 29 866 251 0 233 86
5 42 -.285 .041 .05350000000001 29 42 253 0 39 866 40 -.285 .041 -.0674999999999
9 29 620 245 0 68 867 854 -.285 -.082 -.07349999999999 29 867 244 0 619 0 620 -.
285 -.082 .05950000000001 18 619 8 0 621 850 68 867 ?3 81 1 858 610 246 227 0 0
 225 347 868 30 859 248 0 227 856 249 0 +-.285 -.067 .05950000000001 0 0 -1 30 8
56 246 0 348 30 859 0 +-.285 -.082 .05950000000001 0 1 0 30 249 250 0 242 859 27
2 0 +-.285 -.067 .05350000000001 0 1 0 30 30 243 0 12 0 856 0 +-.285 -.082 .0595
0000000001 0 0 -1 81 1 225 609 246 217 0 0 244 858 869 81 1 347 611 246 345 0 0
 858 855 870 84 32 868 6fb25da069fc50552e7eb9e3eac28a2381 1 855 612 246 348 0 0
 347 351 871 84 32 870 b5182a6dd31528363d80a033bf84705a81 1 351 613 246 349 0 0
 855 611 872 84 32 871 1af50e967128c30cbdd221c81965928381 1 611 614 246 353 0 0
 351 356 873 84 32 872 f359b1f41ae71fd898639f2cbe049dbd81 1 356 615 246 354 0 0
 611 612 874 84 32 873 f2c434153f3e0be91a50cb683101982f84 32 874 9bb179b4f8f53ff
9888bf158069328fd84 32 869 16a3e825452f558dfb3c403b61061baa83 3 725 .5960784 .66
66667 .6862745 83 3 718 .5960784 .6666667 .6862745 83 3 712 .5960784 .6666667 .6
862745 83 3 707 .5960784 .6666667 .6862745 79 255 15 701 UGS/ObjectState81 1 694
 661 246 298 0 689 875 691 876 81 1 687 697 643 631 875 0 685 689 877 83 3 697 .
5960784 .6666667 .6862745 81 1 875 660 246 631 0 687 878 694 879 81 1 685 696 64
3 310 878 0 682 687 880 83 3 877 .5960784 .6666667 .6862745 81 1 878 659 246 310
 0 685 881 875 882 81 1 682 695 643 679 881 0 678 685 883 83 3 880 .5960784 .666
6667 .6862745 81 1 881 658 246 679 0 682 884 878 885 81 1 678 694 643 675 884 0
 674 682 886 83 3 883 .5960784 .6666667 .6862745 81 1 884 657 246 675 0 678 887
 881 888 81 1 674 693 643 671 887 0 670 678 889 83 3 886 .5960784 .6666667 .6862
745 81 1 887 656 246 671 0 674 890 884 891 81 1 670 692 643 667 890 0 666 674 89
2 83 3 889 .5960784 .6666667 .6862745 81 1 890 655 246 667 0 670 893 887 894 81
 1 666 691 643 663 893 0 662 670 895 83 3 892 .5960784 .6666667 .6862745 81 1 89
3 654 246 663 0 666 896 890 897 81 1 662 690 643 659 896 0 658 666 898 83 3 895
 .5960784 .6666667 .6862745 81 1 896 653 246 659 0 662 899 893 900 81 1 658 689
 643 654 899 0 652 662 901 83 3 898 .5960784 .6666667 .6862745 81 1 899 652 246
 654 0 658 902 896 903 81 1 652 688 643 627 902 0 650 658 904 83 3 901 .5960784
 .6666667 .6862745 81 1 902 651 246 627 0 652 469 899 905 83 3 904 .5960784 .666
6667 .6862745 81 1 469 650 246 18 0 650 463 902 906 84 32 905 5684697dfcbb7093bb
fadfe30f3ad65b84 32 906 0915024d092bb85b709a5acdc34e817284 32 903 6d6dbdcc0e237e
574c09c36b6b15268d84 32 900 6e988ccf8fb8994e50ce0fd6189306ae84 32 897 a318125921
ae34cd7805b6e857de7f7c84 32 894 5515a03d6d8b95eab2f4c728b740597b84 32 891 594ce4
e17e6f67acff96ca4e32583b4a84 32 888 e06ffa07084f5c442c657f909fc4ce9d84 32 885 f9
fb615ee8c40ed05132374682ae01c784 32 882 13e9910c4d463483e452f44e8175a59f84 32 87
9 34729ea6dd119738c7c25cccd2aee07084 32 876 2a087d19c29becb917b4bf5b19aa9d6484 3
2 696 6605f310ee303e5e1cffafd91d36d8fd79 15 693 SDL/TYSA_COLOUR83 3 653 .5960784
 .6666667 .6862745 83 3 647 .5960784 .6666667 .6862745 17 140 0 607 199 343 127
 336 333 0 340 -17 343 0 607 140 604 135 609 291 0 0 +17 232 0 229 202 230 39 24
3 266 0 608 +81 1 528 617 246 491 0 0 612 490 907 84 32 613 c3e14a43c6ad004bc909
ed3197f4cba381 1 490 618 246 370 0 0 528 368 908 84 32 907 faa789f1f81b3faab62df
6127f34c67481 1 368 619 246 362 0 0 490 360 909 84 32 908 df271454c2dccee6b2f68a
ad3552f56d81 1 360 620 246 358 0 0 368 365 910 84 32 909 ea753ee9b5996a5dffd412b
c600b805581 1 365 621 246 363 0 0 360 402 911 84 32 910 905560aa795c270a1c445a30
9d6c46bb81 1 402 622 246 366 0 0 365 399 912 84 32 911 2a6c4dc5794b1033d90064866
138092281 1 399 623 246 397 0 0 402 395 913 84 32 912 97e25e13de9d9b3f93e52d0a65
e0624081 1 395 624 246 393 0 0 399 391 914 84 32 913 83aefd7be988bf976409c419bfe
60cc381 1 391 625 246 389 0 0 395 387 915 84 32 914 6a5fd4924aec27980821517d5b19
6a6581 1 387 626 246 385 0 0 391 383 916 84 32 915 242b3900487aa94b0bf95c1e2e238
d6481 1 383 627 246 375 0 0 387 373 917 84 32 916 20e4de42a8e1587d9342940d3db113
0081 1 373 628 246 371 0 0 383 430 918 84 32 917 59948e1946e81ee729064a41a0071ad
e81 1 430 629 246 376 0 0 373 415 919 84 32 918 919d08a68bbc38a51af9d3d04dfe4db9
81 1 415 630 246 413 0 0 430 423 920 84 32 919 4604acbc026d8c88fe042c942652514b8
1 1 423 631 246 417 0 0 415 420 921 84 32 920 d54d5178400debf1313577847427347b81
 1 420 632 246 418 0 0 423 433 922 84 32 921 b3d379c75055b459df16f1521b938a1c81
 1 433 633 246 421 0 0 420 427 923 84 32 922 ee6675f09c7297919759e5ef2339afe981
 1 427 634 246 425 0 0 433 439 924 84 32 923 46a216ac821ef1dee70edabd35bfb3ca81
 1 439 635 246 428 0 0 427 437 925 84 32 924 59c935b2fb856e1710e2be60f6f17f7981
 1 437 636 246 435 0 0 439 445 926 84 32 925 ee67a89f018a90a7fe17952c9fb227c481
 1 445 637 246 408 0 0 437 406 927 84 32 926 0b32a8667a5979fa49ade5530889351c81
 1 406 638 246 404 0 0 445 442 928 84 32 927 fadb8bb6183849e93c2b27b97c85306d81
 1 442 639 246 409 0 0 406 412 929 84 32 928 7e0474f4e688ee81fb1c66f4f2ed007681
 1 412 640 246 410 0 0 442 513 930 84 32 929 f1884017975fa8a02f0eee8b57c7a18381
 1 513 641 246 380 0 0 412 379 931 84 32 930 53e69abbb0f315c90ca0c969c2c4ec1d81
 1 379 642 246 377 0 0 513 448 932 84 32 931 6b8ffef2312299a916f38670987a4b1981
 1 448 643 246 381 0 0 379 508 933 84 32 932 ff39b293cac7ddffa3c194d024135e6581
 1 508 644 246 450 0 0 448 453 934 84 32 933 be4dda9030fcf5ec312a1b5a8eefa27981
 1 453 645 246 451 0 0 508 456 935 84 32 934 346414d7343ad408f94dee1582a28ba681
 1 456 646 246 455 0 0 453 462 936 84 32 935 ae915600b5ffa08e862cbf8ff9428e8c81
 1 462 647 246 458 0 0 456 460 937 84 32 936 e9c64f90fea86c492d9804070b04e3b984
 32 937 0ca0f7a076454c41411bf88082deb47181 1 342 596 246 291 0 0 600 290 938 84
 32 606 c627568b7db1eb822bb3595457f2877181 1 290 597 246 280 0 0 342 279 939 84
 32 938 06c40d98a12ba53e46c9d4274bca34bd81 1 279 598 246 277 0 0 290 283 940 84
 32 939 4e34caab420bb670210aa03b097f708281 1 283 599 246 281 0 0 279 285 941 84
 32 940 a17b4f41cc59635dba368dbf15be606c81 1 285 600 246 234 0 0 283 942 943 84
 32 941 0e7852610246fab95f0a4b11ce27cedc81 1 942 601 246 210 0 0 285 268 944 84
 32 943 96741e9db3320ade76bc3425ff86f75f16 210 142 942 ?209 234 266 250 0 0 3 81
 1 268 602 246 266 0 0 942 262 945 84 32 944 3fa599de0902e2bd12050d5de50fa25184
 32 945 bdd2c5e1392f147b619f2f93ff093ccc17 209 0 213 215 214 191 206 210 0 0 +81
 1 257 593 246 256 0 0 287 598 946 84 32 601 6ae0d9c6b963916093a074a57b965ad281
 1 287 592 246 255 0 0 253 257 947 84 32 946 872e5534cc486fa4e2749a61b2c86c2c81
 1 253 591 246 221 0 0 530 287 948 84 32 947 6e474700345a5f6011578b89d02f68e681
 1 530 590 246 254 0 0 327 253 949 84 32 948 e8a03c18185112c034e160def35e54a681
 1 327 589 246 325 0 0 331 530 950 84 32 949 a47c0d13e7e63c296b03de0c697b367981
 1 331 588 246 329 0 0 335 327 951 84 32 950 b2d699d3da39b54d1aac394f5262ffe781
 1 335 587 246 333 0 0 339 331 952 84 32 951 4f703f0d3e14a11d19b6022d0eec89f181
 1 339 586 246 337 0 0 556 335 953 84 32 952 76801d8d03ea1f5e037eeb1ab680d10a81
 1 556 585 246 308 0 0 307 339 954 84 32 953 3b3797b960fbaaeb541f43edb0b8d36f81
 1 307 584 246 301 0 0 314 556 955 84 32 954 af7cc3e911699271169496d404a9bb8684
 32 955 df7c0bdb4e937d6272c20cf81444c5e381 1 596 578 246 533 0 0 591 532 956 81
 1 591 577 246 589 0 0 594 596 957 81 1 532 579 246 522 0 0 596 521 958 84 32 95
6 6caee65f7a38531ff88d5b53e8a069a081 1 521 580 246 324 0 0 532 323 959 84 32 958
 db311f9721484f221365ad7e12a7c2e681 1 323 581 246 318 0 0 521 316 960 84 32 959
 c008f0e9d770d0d07f26c5ebda92618281 1 316 582 246 312 0 0 323 314 961 84 32 960
 38f73058d885b86a943be4231067cd7184 32 961 b45bdb205f2c21af29c19dc83537388a81 1
 594 576 246 585 0 0 583 591 962 84 32 957 2bda6d7266681b4f7949535efc0eab9281 1
 583 575 246 581 0 0 587 594 963 84 32 962 d74b7a08ccfcec97d194baa15d2346a881 1
 587 574 246 577 0 0 575 583 964 84 32 963 4cf5a351eea028585dee30d284694bcf81 1
 575 573 246 573 0 0 579 587 965 84 32 964 028659b5b6da6e9f5ef4316c9a95ba9a81 1
 579 572 246 569 0 0 567 575 966 84 32 965 b97a5e9d71ba85ba3bfbb2ff23c5a83981 1
 567 571 246 565 0 0 571 579 967 84 32 966 daaf6414f83a98f8c0db4060654bb31381 1
 571 570 246 561 0 0 559 567 968 84 32 967 31699cc441eb6c35fb0f44704f50d72881 1
 559 569 246 557 0 0 563 571 969 84 32 968 c45d9b08dda2400797026d3509a179c781 1
 563 568 246 552 0 0 550 559 970 84 32 969 325f13ac541a47520658c0ec5e3a5f1f81 1
 550 567 246 548 0 0 554 563 971 84 32 970 adc5e252218e4175a14af5ac5f22400f81 1
 554 566 246 304 0 0 518 550 972 84 32 971 b34402d6387ddeb7263f7e550ac4d52981 1
 518 565 246 516 0 0 524 554 973 84 32 972 d51d2c49c61025449d6706068a29a63381 1
 524 564 246 519 0 0 535 518 974 84 32 973 6ac9bd8353dded60231be42918fc186c81 1
 535 563 246 526 0 0 539 524 975 84 32 974 97c09c6db7649efbd90c48335bd0cb9281 1
 539 562 246 537 0 0 543 535 976 84 32 975 50cce199362a4540febdb724336b6abe81 1
 543 561 246 541 0 0 545 539 977 84 32 976 59e84eb8558a5fdbf6d71a3289d7988681 1
 545 560 246 503 0 0 498 543 978 84 32 977 3a8d1916d0937f18c3762b9aca0ba07c81 1
 498 559 246 495 0 0 493 545 979 84 32 978 6a3bf4fc2823e0561aa6317a2f6f212884 32
 979 e8b53ddd8bec298ffb00e536778837f981 1 515 555 246 29 0 0 27 510 980 81 1 27
 554 246 12 0 0 0 515 981 81 1 510 556 246 500 0 0 515 497 982 84 32 980 bcd818b
ec9eb0f7d3d3678318e39f61181 1 497 557 246 494 0 0 510 493 983 84 32 982 de40684e
ca61d934f51820461e8f545084 32 983 0b0e12dfa0525bfab082875687f56ea484 32 981 90d0
09f0d5a36019479e06440ed799a684 32 499 16bc2ee09c4c743cf1b1c6750488017384 32 470
 43f65bb063511246a4f0024a7bff1cb584 32 464 97d6280cf70f316f2fbd59eccf71134b84 32
 317 bf91fbbc600f7d5ebafc8564a293157681 1 235 605 246 22 0 0 260 292 984 81 1 24
7 607 246 242 0 0 292 244 985 84 32 293 ed4892b407da33b7e8b2cecf9a1adce284 32 98
5 6f038c351e213599e179fe4d97c3ad0e84 32 984 373a5ddb2d7ef76185ffdb0b586d58e284 3
2 269 cb63723dd66af04515642b86c1bdba6384 32 263 94012c485711911d743a94ab7fd1d4c9
84 32 248 9047fa438e058b144f5b0be2744c362819 19 1 0 3 0 11 7 S0 74 4 CI16 index_
map_offset0 0 1 dCCZ20 17 4 0 0 15 829 831 5 0 0 0 0 0 0 0 0 0 0 0 0 0 0 0 0 81
 2 15 551 986 3 0 5 0 0 987 988 80 2 986 989 990 8004 0 0 0 0 3 5 0 0 0 FFTFFFFF
FFFFFF2 3 83 1 987 7830.64 84 8 988 Kg/Cu M 79 16 990 SDL/TYSA_DENSITY80 1 14 99
1 992 9000 0 0 0 0 3 5 0 0 0 FFTFFFFFFFFFFF1 82 255 1 16 129 79 24 992 UG2/BODY_
COLOR_ATTRIBUTE1 0 
