**ABCDEFGHIJKLMNOPQRSTUVWXYZabcdefghijklmnopqrstuvwxyz**************************
**PARASOLID !"#$%&'()*+,-./:;<=>?@[\]^_`{|}~0123456789**************************
**PART1;
MC=x64/Windows NT;
MC_MODEL=genuineintel family 6 model 14 stepping 9, intel(r) core(tm) i5-7500 cpu @ 3.40ghz;
MC_ID=hzk-pc;
OS=windows nt (x64);
OS_RELEASE=6.1 windows 7 ultimate (build 7601) service pack 1;
FRU=mdc_ugii_v7.0_djl_can_vrh;
APPL=unigraphics;
SITE=unknown;
USER=Administrator;
FORMAT=text;
GUISE=transmit;
KEY=XZ;
FILE=H:\LI\CK\2018.05\2488模具图\CX\XZ.x_t;
DATE=28-may-2018;
**PART2;
SCH=SCH_2900123_28101;
USFLD_SIZE=0;
**PART3;
**END_OF_HEADER*****************************************************************
T51 : TRANSMIT FILE created by modeller version 290012323 SCH_2900123_28101_1300
6203 0 10 19 CCCCCCCI4 mesh1006 0 I8 polyline1008 0 CCCCCCCCCCZ1 2 0 0 0 0 0 0 0
 0 0 1e3 1e-8 0 0 0 1 0 1 2 11 255 2 1 0 1 3 4 1 0 0 0 0 12 33 CCCCCCI4 mesh1006
 0 I8 polyline1008 0 CCCCCCCDI5 owner1040 0 CCCCCCI13 boundary_mesh1006 0 I17 bo
undary_polyline1008 0 CCCA16 index_map_offset0 0 1 dA9 index_map82 0 A17 node_id
_index_map82 0 A20 schema_embedding_map82 0 A5 child12 0 A14 lowest_node_id0 0 1
 dZ3 316 5 6 0 0 0 0 0 0 1e3 1e-8 2 0 0 1 0 1 1 7 8 9 10 0 0 11 12 13 0 0 0 0 0
 0 100 255 4 2 2 0 0 1 0 0 0 1 0 0 0 1 0 0 0 1 0 ?81 255 1 5 316 14 3 15 0 0 0 1
6 70 11 CI9 list_type0 0 1 uI10 notransmit0 0 1 lCCCDCCDI12 finger_index0 0 1 dI
12 finger_block1012 0 CZ6 0 4 T3 0 0 4 20 1 17 17 13 255 7 4 0 3 0 18 0 0 19 0 5
1 255 8 148 0 20 21 0 0 +-.2119594 -.03145267945401 -.02459625 1 0 0 .0015 0 -1
 0 30 255 9 217 0 3 22 0 23 --.2289594 -.029042679454013 -.0245962500032115 .995
885039427569 .090625538587914 -1207642113458896e-25 29 255 10 218 0 24 25 0 -.23
89594 -.02995267945401155 -.02459625000099945 19 8 CCCCCCCA5 owner12 0 Z11 2 0 3
 19 0 26 V0 16 255 12 14 27 ?28 0 29 30 0 0 3 18 255 13 13 0 31 0 32 25 ?3 17 25
5 31 0 33 28 34 13 35 36 0 37 +18 32 11 0 35 13 38 39 ?3 29 25 215 0 13 39 10 -.
2134594 -.02813767945401 -.02459624999954 29 39 212 0 32 40 25 -.2134594 -.03476
767945401 -.0245962500003794 29 40 209 0 41 42 39 -.2389594 -.0329526794540085 -
.0245962499990006 18 41 60 0 43 24 44 40 ?3 29 42 136 0 44 45 40 -.2189594 -.028
13517945401 -.02459625000442 18 44 68 0 46 41 47 42 75000000000036e-19 3 29 45 1
35 0 47 48 42 -.2189594 -.034770179454 -.02459624999558 18 47 67 0 49 44 0 45 75
000000000036e-19 3 29 48 124 0 50 51 45 -.315 -.03295267945401 -.02459625 18 50
 53 0 52 53 24 48 ?3 29 51 123 0 53 54 48 -.315 -.02995267945401 -.02459625 18 5
3 52 0 55 56 50 51 ?3 29 54 117 0 57 58 51 -.315 -.02395267945401 -.02459625 18
 57 44 0 59 60 56 54 ?3 29 58 116 0 56 61 54 -.315 -.03895267945401 -.02459625 1
8 56 43 0 62 57 53 58 ?3 29 61 112 0 63 64 58 -.307 -.02395267945401 -.02459625
 18 63 37 0 65 66 60 61 ?3 29 64 111 0 60 67 61 -.307 -.03895267945401 -.0245962
5 18 60 36 0 68 63 57 64 ?3 29 67 105 0 69 70 64 -.307 -.02645267945401 -.024596
25 18 69 28 0 71 72 66 67 ?3 29 70 103 0 66 73 67 -.307 -.03645267945401 -.02459
625 18 66 26 0 74 69 63 70 ?3 29 73 98 0 75 76 70 -.2119594 -.02645267945401 -.0
2459625 18 75 19 0 77 78 72 73 ?3 29 76 97 0 72 79 73 -.2119594 -.03645267945401
 -.02459625 18 72 18 0 80 75 69 76 ?3 29 79 89 0 38 81 76 -.2119594 -.0362676794
5401 -.02459625 18 38 9 0 82 32 78 79 ?3 29 81 88 0 78 0 79 -.2119594 -.02663767
945401 -.02459625 18 78 8 0 83 38 75 81 ?3 17 83 0 84 85 82 78 86 87 0 28 -15 25
5 84 6 0 85 18 0 17 85 0 84 88 83 13 28 12 0 89 -17 82 0 84 83 88 38 34 90 0 86
 +17 86 0 91 92 92 38 83 87 0 93 +16 87 7 94 ?86 95 96 97 0 0 3 17 28 0 33 93 31
 78 85 12 0 92 +15 33 77 0 34 98 0 17 93 0 33 34 28 38 92 96 0 0 -17 92 0 91 86
 86 78 93 96 0 0 +15 91 21 0 86 99 0 16 96 22 100 ?92 87 101 102 0 0 3 81 1 100
 260 103 96 0 0 94 104 105 16 101 29 104 ?106 96 107 108 0 0 3 31 255 102 100 0
 96 109 110 0 +-.2119594 -.03145267945401 -.02459625 -1 0 0 0 -1 0 .004815 31 10
9 99 0 95 111 102 0 +-.2119594 -.03145267945401 -.02459625 1 0 0 0 -1 0 .005 30
 110 102 0 112 102 113 0 --.2119594 -.03645267945401 -.02459625 -1 0 0 16 112 25
 114 ?115 116 117 110 0 0 3 31 113 104 0 107 110 108 0 +-.307 -.03145267945401 -
.02459625 1 0 0 0 1 0 .005 16 107 27 118 ?119 101 116 113 0 0 3 30 108 106 0 101
 113 120 0 --.2119594 -.02645267945401 -.02459625 -1 0 0 31 120 108 0 117 108 12
1 0 +-.307 -.03145267945401 -.02459625 1 0 0 0 -1 0 .005 16 117 32 122 ?123 112
 124 120 0 0 3 31 121 110 0 125 120 126 0 +-.307 -.03145267945401 -.02459625 -1
 0 0 0 -1 0 .0075 16 125 35 127 ?128 124 129 121 0 0 3 31 126 113 0 130 121 131
 0 +-.307 -.03145267945401 -.02459625 -1 0 0 0 1 0 .0075 16 130 38 132 ?68 133 1
34 126 0 0 3 31 131 115 0 135 126 136 0 +-.315 -.03145267945401 -.02459625 -1 0
 0 0 -1 0 .0075 16 135 42 137 ?138 129 139 131 0 0 3 30 136 118 0 133 131 140 0
 +-.315 -.02395267945401 -.02459625 1 0 0 16 133 45 141 ?142 143 130 136 0 0 3 3
0 140 119 0 124 136 144 0 +-.315 -.03895267945401 -.02459625 1 0 0 16 124 46 145
 ?146 117 125 140 0 0 3 31 144 121 0 129 140 147 0 +-.315 -.03145267945401 -.024
59625 -1 0 0 0 1 0 .0075 16 129 49 148 ?149 125 135 144 0 0 3 31 147 122 0 143 1
44 150 0 +-.315 -.03145267945401 -.02459625 1 0 0 0 1 0 .0015 16 143 51 151 ?52
 139 133 147 0 0 3 31 150 125 0 139 147 152 0 +-.315 -.03145267945401 -.02459625
 1 0 0 0 -1 0 .0015 16 139 54 153 ?154 135 143 150 0 0 3 31 152 167 0 155 150 15
6 0 +-.2389594 -.03145267945401 -.02459625 -1 0 0 0 -1 0 .0015 16 155 59 157 ?15
8 159 160 152 0 0 3 30 156 169 0 134 152 161 0 +-.2389594 -.032952679454 -.02459
624999801 -1 -1812785416442e-26 -2623352792469e-23 16 134 63 162 ?163 130 159 15
6 0 0 3 31 161 171 0 164 156 165 0 +-.2389594 -.03145267945401 -.02459625 -1 0 0
 0 1 0 .0015 16 164 83 166 ?167 168 169 161 0 0 3 30 165 178 0 169 161 170 0 +-.
2389594 -.02995267945401 -.02459625000199 -1 1812785416442e-26 2623357464596e-23
 16 169 62 171 ?172 164 0 165 0 0 3 133 255 170 179 0 173 165 174 0 +174 -.21895
94 -.03476767945401 -.02459625 -.2189594 -.02813767945401 -.02459625000441665 0
 1 17 173 0 175 89 176 44 49 177 170 178 +137 255 174 180 0 3 170 179 180 +181 1
82 0 ?133 179 181 0 49 174 183 0 +183 -.218959625631545 -.02813269998648355 -.02
45962500044233 -.218959625631546 -.0347726589215364 -.0245962499955767 0 1 141 2
55 180 170 180 180 174 51 181 139 0 184 185 186 187 +-.2119594 -.03145267945401
 -.02459625 1 0 0 .003315 0 -1 0 134 255 182 0 0 0 0 0 0 +188 189 136 255 188 2
 17 2 9 5 FFF1 190 191 192 135 255 189 2 0 45 255 34 190 6.28318530717959 -.007
 6.24926802829322 -.00699999999329855 6.0867856777191 -.00704440742056903 6.0043
2888708609 -.00706694336936626 5.89049620486676 -.00706056056415394 5.7809576130
5185 -.00705441853638867 5.49778541088959 -.00705543091663147 5.10508717906557 -
.00705683486775466 4.71238894724369 -.007054925717175 4.319690757715265 -.007053
01656680097 3.926992568189625 -.00705543091642921 3.588537260029905 -.0070575117
7513758 3.53428152236636 -.00706056056251195 3.42056644434448 -.0070669505427993
6 3.33799208682174 -.0070444074234651 3.175329839086665 -.007 3.141592652257465
 -.007 127 255 9 191 3 2 2 2 2 2 2 2 3 128 255 9 192 0 .0625 .125 .25 .5 .75 .87
5 .9375 1 14 255 184 71 193 ?98 194 175 7 181 -0 0 98 194 26 52 255 185 133 0 19
4 195 181 196 +-.2289594 -.03145267945401 -.02459625 1 0 0 .002409999999997 .090
625538587914 .995885039427569 0 0 1 54 255 186 143 0 98 181 197 0 +-.2134594 -.0
3145267945401 -.02459625 1 0 0 .004815 .0015 0 .872793607033492 .488089458523196
 141 187 174 187 187 181 14 98 76 198 ?199 184 33 7 186 +0 0 199 184 26 51 197 1
44 0 199 186 21 200 +-.2119594 -.03145267945401 -.02459625 1 0 0 .003315 0 -1 0
 14 199 78 201 ?202 98 203 7 197 -0 0 202 98 26 52 21 146 0 202 197 8 204 +-.228
9594 -.03145267945401 -.02459625 1 0 0 .002409999999997 .090625538587914 .995885
039427569 0 0 1 141 200 205 200 200 197 137 205 203 0 3 206 207 208 +197 209 0 ?
133 206 202 0 210 30 205 0 +205 -.2189594 -.02813767945401 -.02459625000441665 -
.2189594 -.03476767945401 -.02459625 0 1 133 207 204 0 178 205 211 0 +211 -.2189
59625631546 -.0347726589215364 -.0245962499955767 -.218959625631545 -.0281326999
8648355 -.0245962500044233 0 1 141 208 206 208 208 205 134 209 0 0 0 0 0 0 +212
 213 136 212 2 17 2 9 5 FFF1 214 215 216 135 213 2 0 45 34 214 3.141592652257465
 -.007 3.10767537470336 -.00699999999329855 2.9451930241299 -.00704440742056903
 2.8627362334971 -.00706694336936629 2.74890355127812 -.00706056056415394 2.6393
64959463825 -.00705441853638865 2.356192757301935 -.00705543091663147 1.96349452
5478355 -.00705683486775468 1.57079629365691 -.007054925717175 1.178098104128044
 -.00705301656680094 .785399914601961 -.00705543091642921 .446944606440686 -.007
0575117751376 .392688868777723 -.00706056056251195 .278973790755354 -.0070669505
4279939 .196399433232536 -.0070444074234651 .0337371854975645 -.007 0 -.007 127
 9 215 3 2 2 2 2 2 2 2 3 128 9 216 0 .0625 .125 .25 .5 .75 .875 .9375 1 17 178 0
 217 218 219 44 210 220 207 0 -137 211 205 0 3 207 221 222 +21 223 0 ?133 221 20
7 0 159 211 224 0 +224 -.2189594 -.03477267945400705 -.0245962499955759 -.238959
4 -.0329526794540085 -.0245962499990006 .01004131963439068 -.01004131963439056 1
41 222 207 222 222 211 134 223 0 0 0 0 0 0 +225 226 136 225 2 17 2 9 5 FFF1 227
 228 229 135 226 2 0 45 34 227 1.57079632546257 .00999977436845417 1.60474907772
9435 .00999977436845417 1.767195760027435 .00995555208621898 1.84968472403366 .0
0993309640909484 1.96348519557262 .0099394568900138 2.073161036435545 .009945586
83906977 2.35619624139686 .00994456935078949 2.748894430925395 .0099431576331002
3 3.141592620451805 .00994507147235812 3.534290852275705 .00994698531182216 3.92
698908409683 .00994456935044483 4.2656201711819 .00994248602141182 4.31969987807
3015 .00993945688819881 4.43338270116576 .00993308924245929 4.5159893509248 .009
95555208911791 4.67861588463647 .00999977437509665 4.71238897905236 .00999977436
845506 127 9 228 3 2 2 2 2 2 2 2 3 128 9 229 0 .0625 .125 .25 .5 .75 .875 .9375
 1 16 159 70 230 ?231 134 155 221 0 0 3 30 224 208 0 3 221 232 233 --.2289594 -.
033862679454007 -.0245962499967885 .995885039427569 -.090625538587914 1207643612
307572e-25 133 232 210 0 160 224 234 0 +234 -.2134594 -.03476767945401 -.0245962
500003794 -.2189594 -.03476767945401 -.02459625 -.0015 -.007 141 233 221 233 233
 224 16 160 75 235 ?176 155 177 232 0 0 3 30 234 211 0 3 232 236 237 --.2119594
 -.03476767945401 -.02459625 1 0 0 133 236 213 0 238 234 239 0 +239 -.2134594 -.
02813767945401 -.02459624999954 -.2189594 -.02813767945401 -.0245962500044144 -.
0015 -.007 141 237 232 237 237 234 16 238 74 240 ?241 36 220 236 0 0 3 30 239 21
4 0 3 236 22 242 --.2119594 -.02813767945401 -.02459624999908 1 0 0 133 22 216 0
 168 239 9 0 +9 -.2189594 -.02813267945401295 -.0245962500044241 -.2389594 -.029
95267945401155 -.02459625000099945 .01004131963439068 -.01004131963439056 141 24
2 236 242 242 239 16 168 69 243 ?218 220 164 22 0 0 3 81 1 243 283 103 168 0 0 2
44 166 245 17 218 0 217 167 178 24 46 168 0 158 +16 220 80 244 75000000000036e-1
9 210 238 168 0 0 0 3 81 1 244 282 103 220 0 0 240 243 246 17 210 0 203 247 241
 47 178 220 206 0 +15 203 79 0 241 199 0 17 247 0 203 37 210 32 176 160 0 0 -17
 241 0 203 210 37 44 89 238 0 173 +17 37 0 203 241 247 13 88 29 0 85 -17 89 0 17
5 35 173 13 241 238 0 0 -15 175 72 0 176 184 0 17 35 0 175 176 89 32 31 36 0 34
 -17 176 0 175 173 35 47 247 160 0 219 +16 36 73 248 ?31 90 238 249 0 0 3 17 34
 0 33 31 93 32 82 90 0 88 -16 90 10 250 ?82 177 36 251 0 0 3 17 88 0 84 82 85 32
 37 29 0 247 +16 29 12 252 ?88 12 95 253 0 0 3 81 1 252 257 103 29 0 0 27 254 25
5 16 95 20 254 ?256 29 87 109 0 0 3 31 253 194 0 29 251 30 0 +-.2134594 -.031452
67945401 -.02459625 -1 0 0 0 1 0 .003315 31 251 192 0 90 249 253 0 --.2134594 -.
03626767945401 -.0245962500011 0 -2274855859241e-22 1 1 2509589573189e-22 570895
454485912e-34 .0015 31 30 201 0 12 253 206 0 --.2134594 -.02663767945401 -.02459
62499989 0 2274838095673e-22 -1 1 -2509542203673e-22 -570880220761451e-34 .0015
 31 249 190 0 36 183 251 0 +-.2134594 -.03145267945401 -.02459625 -1 0 0 0 -1 0
 .003315 137 183 182 0 3 179 249 257 +185 258 0 ?141 257 179 257 257 183 134 258
 0 0 0 0 0 0 +259 260 136 259 2 17 2 9 5 FFF1 261 262 263 135 260 2 0 45 34 261
 4.71238897905236 .00999977436845506 4.74634173132042 .00999977436845506 4.90878
841361664 .00995555208621987 4.99127737762236 .00993309640909562 5.1050778491612
6 .00993945689001463 5.21475369001976 .00994558683907041 5.49778889498452 .00994
456935079013 5.89048710108312 .00994315763304131 6.28318530717959 .0099450714723
5812 6.67588352243342 .00994698531171957 7.06858173768449 .00994456935044419 7.4
0721282490125 .00994248602141038 7.46129253166166 .00993945688819795 7.574975354
71117 .00993308924244667 7.657582004514 .00995555208911703 7.82020853822697 .009
99977437509576 7.85398163264216 .00999977436845417 127 9 262 3 2 2 2 2 2 2 2 3 1
28 9 263 0 .0625 .125 .25 .5 .75 .875 .9375 1 81 1 254 258 103 95 0 0 252 94 264
 17 256 0 265 80 80 75 266 95 0 106 +15 265 16 0 256 99 91 17 80 0 265 256 256 7
2 77 116 0 266 -17 266 0 267 74 106 72 256 95 0 115 -17 106 0 267 266 123 75 268
 101 0 0 +15 267 31 0 74 269 0 17 123 0 267 106 74 69 270 117 0 0 +17 268 0 271
 119 77 69 106 101 0 123 -15 271 24 0 268 272 0 17 119 0 271 115 268 66 71 107 0
 270 +17 77 0 271 268 115 75 80 116 0 256 +17 115 0 271 77 119 72 74 112 0 0 +16
 116 17 273 ?77 107 112 111 0 0 3 81 1 273 263 103 116 0 0 118 114 274 31 111 96
 0 116 97 109 0 +-.2119594 -.03145267945401 -.02459625 -1 0 0 0 -1 0 .005 31 97
 87 0 87 0 111 0 +-.2119594 -.03145267945401 -.02459625 -1 0 0 0 1 0 .004815 80
 255 1 103 275 276 9000 1 1 1 1 1 1 1 1 0 FFFFTFTFFFFFFF3 81 1 118 262 103 107 0
 0 104 273 277 81 1 114 264 103 112 0 0 273 122 278 84 255 32 274 4e90d2206ac6aa
ffe6a3eedfaca6a18081 1 122 265 103 117 0 0 114 145 279 84 32 278 289a8c5249b42dc
7e9c26b1022c70b0881 1 145 266 103 124 0 0 122 127 280 84 32 279 9a6a1835f7288467
16377dc425ccc53c81 1 127 267 103 125 0 0 145 148 281 84 32 280 65d61bce168dd2d9a
04224c182126abb81 1 148 268 103 129 0 0 127 137 282 84 32 281 7cd7b66269bc3ff58d
e1b0c01016c56781 1 137 269 103 135 0 0 148 153 283 84 32 282 2c37ed4f649b22925cc
010919b21020181 1 153 270 103 139 0 0 137 151 284 84 32 283 95d9929d684571e21094
b2d91840f22481 1 151 271 103 143 0 0 153 141 285 84 32 284 cb8a10fcbf0a985377ab8
04af3b381c681 1 141 272 103 133 0 0 151 132 286 84 32 285 cb948139b1da094b484b34
7275c365eb81 1 132 273 103 130 0 0 141 162 287 84 32 286 864e5638fa0b886fa2cdcb1
218d0caf881 1 162 274 103 134 0 0 132 230 288 84 32 287 0211daac79d05fd21be7180b
29d79e3481 1 230 275 103 159 0 0 162 157 289 84 32 288 fd9637804c48187b9c1e02cbf
cb70d8c81 1 157 276 103 155 0 0 230 235 290 84 32 289 0e0004c773b961c865d642a76d
c6589581 1 235 277 103 160 0 0 157 291 292 84 32 290 d50265d83e3e64008c130fcc873
7e19f81 1 291 278 103 177 0 0 235 250 293 84 32 292 1f35f5f59cc71334044cd3c13fdb
d59916 177 66 291 75000000000036e-19 173 160 90 0 0 0 3 81 1 250 279 103 90 0 0
 291 248 294 84 32 293 d141859066f05739f272779b894aa2d581 1 248 280 103 36 0 0 2
50 240 295 84 32 294 597ede515ff00e930729fc7709dbd8cc81 1 240 281 103 238 0 0 24
8 244 296 84 32 295 d487efd4737ba596b2d9b93af4d89cc284 32 296 3a467a6af5dddb9558
c395d418d9a98281 1 104 261 103 101 0 0 100 118 297 84 32 277 eabb32bc32b5bc09a78
1a9b03758f66084 32 297 1ec4b6431210a7f9519bf13856b70ac279 255 15 276 UGS/ObjectS
tate17 74 0 267 123 266 66 115 112 0 119 -17 71 0 298 270 270 69 119 107 0 268 -
17 270 0 298 71 71 66 123 117 0 0 -15 298 39 0 270 299 0 14 299 33 300 ?301 269
 302 7 303 -0 0 301 269 26 81 1 300 305 304 299 305 0 306 307 308 14 301 40 307
 ?309 299 310 7 311 +0 0 309 299 26 14 269 30 306 ?299 272 267 7 312 +0 0 299 27
2 26 15 302 34 0 65 299 298 50 255 303 109 0 299 312 311 0 +-.307 0 0 -1 0 0 0 1
 0 13 26 3 0 0 0 0 0 0 11 18 14 18 5 313 ?99 0 84 7 314 +0 0 99 0 26 81 1 313 30
1 304 18 315 0 0 316 317 14 99 15 316 ?272 18 265 7 318 -0 0 272 18 26 54 314 86
 0 18 0 318 0 +-.2134594 -.03145267945401 -.02459625 1 0 0 .004815 .0015 0 -.872
793607033492 -.488089458523196 50 318 95 0 99 314 319 0 +-.2119594 .003582861995
995 -.007 -1 0 0 0 -1 0 51 319 101 0 272 318 312 0 +-.1793 -.03145267945401 -.02
459625 1 0 0 .005 0 -1 0 14 272 23 320 ?269 99 271 7 319 +0 0 269 99 26 51 312 1
07 0 269 319 303 0 +-.1793 -.03145267945401 -.02459625 1 0 0 .005 0 -1 0 81 1 32
0 303 304 272 321 0 316 306 322 80 1 304 0 323 8001 0 0 0 0 3 5 0 0 0 FFFFTFTFFF
FFFF2 81 1 321 288 103 272 0 320 324 325 326 81 1 316 302 304 99 324 0 313 320 3
27 81 1 306 304 304 269 325 0 320 300 328 83 255 3 322 .5960784 .6666667 .686274
5 81 1 325 289 103 269 0 306 321 305 329 83 3 328 .5960784 .6666667 .6862745 81
 1 305 290 103 299 0 300 325 330 331 84 32 329 a22a5793a00b67af16b8b0df1c5af3fa8
1 1 330 291 103 301 0 307 305 332 333 84 32 331 4bf982d731da4ca2b986c72ec3f872fe
81 1 307 306 304 301 330 0 300 334 335 81 1 332 292 103 309 0 334 330 336 337 84
 32 333 e5f8896ba208eba3ac274daf281db6c614 309 47 334 ?338 301 339 7 340 +0 0 33
8 301 26 81 1 334 307 304 309 332 0 307 341 342 81 1 336 293 103 338 0 341 332 3
43 344 84 32 337 285fa2828f399ba21acdf95e7be0991114 338 55 341 ?345 309 346 7 34
7 +0 0 345 309 26 81 1 341 308 304 338 336 0 334 348 349 81 1 343 294 103 345 0
 348 336 350 351 84 32 344 6a8086bacf587afa6eac355efa26a8ad14 345 57 348 ?194 33
8 352 7 195 -0 0 194 338 26 81 1 348 309 304 345 343 0 341 353 354 81 1 350 295
 103 194 0 353 343 355 356 84 32 351 ff84eb9cab29cf40e173fde66801641814 194 64 3
53 ?184 345 357 7 185 -0 0 184 345 26 81 1 353 310 304 194 350 0 348 193 358 81
 1 355 296 103 184 0 193 350 359 360 84 32 356 a072dc72d1ff42e81fa43702e0b80dea8
1 1 193 311 304 184 355 0 353 198 361 81 1 359 297 103 98 0 198 355 362 363 84 3
2 360 0e35aeb6464983e70a48e4d32fa04d3a81 1 198 312 304 98 359 0 193 201 364 81 1
 362 298 103 199 0 201 359 365 366 84 32 363 c12a9d7acea17c2e62e1d847136dcd6981
 1 201 313 304 199 362 0 198 367 368 81 1 365 299 103 202 0 367 362 369 370 84 3
2 366 2be9ab06919d9cfb6a61f8c14e05f54814 202 81 367 ?20 199 217 7 21 -0 0 20 199
 26 81 1 367 314 304 202 365 0 201 371 372 81 1 369 300 103 20 0 371 365 0 373 8
4 32 370 1434ada711cdfd036aed40b34d8b0bbe14 20 84 371 ?0 202 374 7 8 -0 0 0 202
 26 81 1 371 315 304 20 369 0 367 0 375 84 32 373 7e2fd9eedc01e10a39c254adb80b82
2883 3 375 .5960784 .6666667 .6862745 15 374 85 0 172 20 0 17 172 0 374 376 377
 53 378 169 0 0 +17 376 0 374 379 172 50 154 139 0 163 -17 377 0 374 172 379 24
 167 164 0 0 -17 378 0 352 43 55 24 172 169 0 218 -15 352 58 0 163 345 0 17 43 0
 352 163 378 41 158 155 0 231 -17 55 0 352 378 163 53 52 143 0 154 -18 24 61 0 3
78 50 41 10 ?3 17 163 0 352 55 43 50 379 134 0 0 +17 52 0 380 154 154 50 55 143
 0 376 +17 154 0 380 52 52 53 376 139 0 172 +15 380 50 0 154 309 0 17 379 0 374
 377 376 41 163 134 0 167 -17 167 0 217 219 218 41 377 164 0 0 +15 217 82 0 218
 202 0 17 219 0 217 178 167 47 231 159 0 210 -17 231 0 357 158 49 41 219 159 0 3
79 +15 357 65 0 231 194 0 17 158 0 357 46 231 24 43 155 0 377 +17 49 0 357 231 4
6 47 173 177 179 176 -17 46 0 357 49 158 44 218 168 0 241 -83 3 372 .5960784 .66
66667 .6862745 83 3 368 .5960784 .6666667 .6862745 83 3 364 .5960784 .6666667 .6
862745 83 3 361 .5960784 .6666667 .6862745 83 3 358 .5960784 .6666667 .6862745 8
3 3 354 .5960784 .6666667 .6862745 51 195 127 0 345 347 185 0 +-.2119594 -.03145
267945401 -.02459625 1 0 0 .0015 0 -1 0 51 347 126 0 338 340 195 0 +-.315 -.0314
5267945401 -.02459625 -1 0 0 .0075 0 1 0 50 340 120 0 309 311 347 0 +-.315 0 0 -
1 0 0 0 1 0 51 311 114 0 301 303 340 0 +-.315 -.03145267945401 -.02459625 -1 0 0
 .0075 0 1 0 83 3 349 .5960784 .6666667 .6862745 15 346 56 0 142 338 0 17 142 0
 346 68 381 63 59 133 0 0 +17 68 0 346 382 142 60 65 130 0 383 +17 381 0 346 142
 382 57 149 129 0 0 -17 59 0 310 62 128 57 142 133 0 138 -15 310 41 0 146 301 0
 17 62 0 310 146 59 56 138 135 0 382 -17 128 0 310 59 146 63 383 125 0 142 +17 1
38 0 339 149 149 57 62 135 0 381 +15 339 48 0 149 309 380 17 149 0 339 138 138 5
6 381 129 0 0 +17 146 0 310 128 62 60 382 124 0 0 +17 383 0 302 65 65 60 128 125
 0 146 -17 65 0 302 383 383 63 68 130 0 128 -17 382 0 346 381 68 56 146 124 0 14
9 -83 3 342 .5960784 .6666667 .6862745 83 3 335 .5960784 .6666667 .6862745 81 1
 324 287 103 99 0 316 315 321 384 83 3 327 .5960784 .6666667 .6862745 81 1 315 2
86 103 18 0 313 171 324 385 84 32 384 367d29067a1dae87b07af6bb287d9be181 1 171 2
85 103 169 0 0 166 315 386 84 32 385 1eda48f0a90fe776a278fdcf81363db981 1 166 28
4 103 164 0 0 243 171 387 84 32 386 90f6815090856b4b46f392ee48ee517d84 32 387 b8
613dabc8534ed831d5ec90ca86adf084 32 326 c0432c1af952ab9f4c8278321e6902ae79 15 32
3 SDL/TYSA_COLOUR83 3 317 .5960784 .6666667 .6862745 83 3 308 .5960784 .6666667
 .6862745 81 1 94 259 103 87 0 0 254 100 388 84 32 264 c28707633e47b0c7e1db95efe
3803dc184 32 388 3c122421bf1dc0d32cc5e2b64448dc0081 1 27 256 103 12 0 0 0 252 38
9 84 32 255 e1d6da6f4dc590969307d7b2dc45e59284 32 389 ad3de0aae2c8021d5f6984ba24
2da3f284 32 246 9804d292869b72fddace48ec10cfa08984 32 245 f4b9fd616aadab96b9866a
10bb07746f141 204 211 204 204 21 141 196 183 196 196 185 84 32 105 bf2b6392167de
501c293185a4a87ec5f19 19 1 0 3 0 11 7 S0 141 23 22 23 23 9 74 4 CI16 index_map_o
ffset0 0 1 dCCZ20 17 4 0 0 15 369 371 5 0 0 0 0 0 0 0 0 0 0 0 0 0 0 0 0 81 2 15
 253 390 3 0 5 0 0 391 392 80 2 390 393 394 8004 0 0 0 0 3 5 0 0 0 FFTFFFFFFFFFF
T2 3 83 1 391 7830.64 84 8 392 Kg/Cu M 79 16 394 SDL/TYSA_DENSITY80 1 14 395 396
 9000 0 0 0 0 3 5 0 0 0 FFTFFFFFFFFFFF1 82 255 1 16 129 79 24 396 UG2/BODY_COLOR
_ATTRIBUTE1 0 
