**ABCDEFGHIJKLMNOPQRSTUVWXYZabcdefghijklmnopqrstuvwxyz**************************
**PARASOLID !"#$%&'()*+,-./:;<=>?@[\]^_`{|}~0123456789**************************
**PART1;
MC=x64/Windows NT;
MC_MODEL=genuineintel family 6 model 14 stepping 10, intel(r) core(tm) i5-8500 cpu @ 3.00ghz;
MC_ID=capfu-pc;
OS=windows nt (x64);
OS_RELEASE=6.3 windows 10 education (build 17134) ;
FRU=mdc_ugii_v7.0_djl_can_vrh;
APPL=unigraphics;
SITE=unknown;
USER=Capful-PC;
FORMAT=text;
GUISE=transmit;
KEY=XJ;
FILE=D:\恒泽坤\CNC-File\2018\180530-装饰圈\Raw-File\装饰圈-模仁改镶件\XJ.x_t;
DATE=11-jun-2018;
**PART2;
SCH=SCH_3000198_30000;
USFLD_SIZE=0;
**PART3;
**END_OF_HEADER*****************************************************************
T51 : TRANSMIT FILE created by modeller version 300019823 SCH_3000198_30000_1300
6205 0 10 19 CCCCCCCI4 mesh1006 0 I8 polyline1008 0 CCCCCCCCCCZ1 4 0 0 0 0 0 0 0
 0 0 1e3 1e-8 0 0 0 1 0 1 2 11 255 2 3 0 1 3 4 1 5 0 0 0 12 33 CCCCCCI4 mesh1006
 0 I8 polyline1008 0 CCCCCCCDI5 owner1040 0 CCCCCCI13 boundary_mesh1006 0 I17 bo
undary_polyline1008 0 CCCA16 index_map_offset0 0 1 dA9 index_map82 0 A17 node_id
_index_map82 0 A20 schema_embedding_map82 0 A5 child12 0 A14 lowest_node_id0 0 1
 dZ3 322 6 7 0 0 0 0 0 0 1e3 1e-8 2 8 0 1 0 1 1 9 10 11 12 0 0 13 14 15 0 0 0 0
 0 0 100 255 4 4 2 0 0 1 0 0 0 1 0 0 0 1 0 0 0 1 0 ?11 5 1 0 1 8 16 1 0 2 0 0 12
 8 374 17 18 0 0 0 0 0 0 1e3 1e-8 5 0 3 1 0 1 1 19 20 21 22 0 0 23 24 25 0 0 0 0
 0 0 100 16 2 5 0 0 1 0 0 0 1 0 0 0 1 0 0 0 1 0 ?81 255 1 17 374 26 8 27 0 0 0 2
8 70 11 CI9 list_type0 0 1 uI10 notransmit0 0 1 lCCCDCCDI12 finger_index0 0 1 dI
12 finger_block1012 0 CZ18 0 4 T8 0 0 4 20 1 29 29 13 255 19 4 0 8 0 30 0 0 31 0
 50 255 20 174 0 32 33 0 0 +-.05 -.0379 .0015075 0 0 1 0 1 0 38 12 CCCCCCCCCCCA1
7 intersection_data204 0 Z21 268 0 34 35 0 0 +36 37 38 39 40 41 29 255 22 270 0
 42 43 0 .0291507235774717 -.034 -.029 19 8 CCCCCCCA5 owner12 0 Z23 2 0 8 31 0 4
4 V0 16 255 24 14 45 ?46 0 47 48 0 0 8 18 255 25 13 0 49 0 50 51 ?8 17 255 49 0
 52 53 53 25 54 47 0 55 -18 50 11 0 56 25 57 58 ?8 29 51 244 0 25 58 59 .0596276
854613658 -.097 -.029 29 58 243 0 50 60 51 .0681959426066086 -.089 -.029 29 59 2
49 0 61 51 62 .04037231453863425 -.097 -.029 18 61 9 0 63 57 64 59 ?8 29 62 250
 0 57 59 65 .0318040573933914 -.089 -.029 18 57 8 0 66 50 61 62 ?8 29 65 263 0 6
7 62 68 .0708492764225283 -.034 -.029 18 67 53 0 69 42 70 65 ?8 29 68 264 0 70 6
5 43 .0675582552476889 -.026 -.029 18 70 52 0 71 67 72 68 ?8 29 43 269 0 73 68 2
2 .03244174475231115 -.026 -.029 18 73 48 0 74 75 42 43 ?8 17 74 0 76 77 77 73 7
8 34 0 79 -18 75 41 0 80 81 73 82 ?8 18 42 47 0 78 73 67 22 ?8 17 78 0 83 84 85
 42 74 34 0 77 +15 255 83 60 0 84 86 0 17 84 0 83 71 78 67 87 88 0 0 -17 85 0 83
 78 71 73 89 90 0 0 +16 34 49 91 ?78 92 93 21 0 0 8 17 77 0 76 74 74 42 79 94 0
 87 -15 76 45 0 74 95 96 17 79 0 97 89 87 73 77 94 0 85 +16 94 46 98 ?79 99 88 1
00 0 0 8 17 87 0 97 79 101 42 84 88 0 0 +15 97 56 0 89 102 0 17 101 0 97 87 89 6
7 103 99 0 84 +16 88 57 104 ?87 94 92 105 0 0 8 81 1 104 325 106 88 0 0 98 107 1
08 16 92 54 107 ?71 88 34 35 0 0 8 30 255 105 213 0 88 109 110 0 -.0291507235774
7 -.034 -.029 1 0 0 30 109 211 0 90 111 105 0 -.03244174475231 -.026 -.029 1 0 0
 38 110 234 0 47 105 112 0 +113 114 115 116 117 118 16 47 12 119 ?54 24 120 110
 0 0 8 38 112 238 0 120 110 121 0 +113 114 122 123 124 125 52 255 113 109 0 126
 114 127 128 +.05 -.0781 -.02275375 0 0 -1 .02099277728762 .03489949670250095 .9
99390827019096 0 -1 0 51 255 114 100 0 30 0 113 129 +-.115 -.093 -.029 -1 0 0 .0
04 0 1 0 40 255 11 115 0 1 11 .000634493120543077 .3984494716589965 ??.059627685
4613657 -.097 -.02899999999999955 .0598003329578522 -.0969385523073251 -.0296984
309002789 .060299975570971 -.0967026253178625 -.0305134615143847 .06151664610827
59 -.0960209784978129 -.03162177209454825 .0637677068448079 -.09440695025416 -.0
3274439460825365 .0659388735775313 -.0923024066062974 -.03293870073210245 .06698
66845111412 -.0910036576011273 -.0324662107590946 .0676605979448992 -.0900146165
720356 -.0316622332332152 .0680831169101184 -.0892849103910021 -.030482602170885
85 .0682014650630858 -.0890087813342683 -.0292649029299855 .0681959426066087 -.0
89 -.029 41 3 CI8 term_use0 0 1 cCZ1 116 L?.0596276854613657 -.097 -.02899999999
999955 41 1 117 L?.0681959426066087 -.089 -.029 204 2 17 INTERSECTION_DATA17 Int
ersection data7 uv_type0 0 1 u6 values0 1 1 fT44 118 4 5.81204493801343 .0062462
4999999956 3.141592653589905 -.174627685461366 5.80348695493384 .006944680900278
89 2.966085294554885 -.174800332957852 5.7775181074595 .00775971151438472 2.7535
6290111281 -.175299975570971 5.71200510272063 .00886802209454824 2.4268235861026
7 -.176516646108276 5.582018704109 .00999064460825367 1.930222960323295 -.178767
706844808 5.44023983141245 .01018495073210246 1.395501607005926 -.18093887357753
15 5.36202718557613 .0097124607590946 1.04825308826049 -.181986684511141 5.30589
404337528 .00890848323321518 .728241624471645 -.1826605979448995 5.2663205804079
8 .00772885217088587 .379709355758372 -.1830831169101185 5.2523196200773 .006511
15292998548 .0662742376175298 -.183201465063086 5.25209835768596 .00624625 14745
14954580284e-29 -.1831959426066085 14 255 30 5 130 ?126 0 131 19 114 -0 0 126 0
 44 141 255 129 110 132 132 114 141 132 112 129 129 114 81 1 130 359 133 30 134
 0 0 135 136 14 126 15 135 ?137 30 138 19 113 +0 0 137 30 44 15 131 6 0 55 30 0
 13 44 3 0 0 0 0 0 0 23 30 17 55 0 131 54 63 25 46 24 0 139 -17 54 0 131 66 55 5
0 49 47 0 53 +17 63 0 131 55 66 61 140 120 0 46 +17 46 0 141 142 139 61 55 24 0
 143 +17 139 0 141 46 56 25 53 144 0 0 +15 141 30 0 56 137 0 17 56 0 141 139 142
 50 66 145 0 54 -17 53 0 52 49 49 50 139 144 0 0 -16 144 28 146 ?139 145 147 121
 0 0 8 81 1 146 315 106 144 0 0 148 149 150 16 145 10 148 ?66 151 144 111 0 0 8
 16 147 26 149 ?142 144 152 153 0 0 8 38 121 242 0 144 112 153 0 +113 127 154 15
5 156 157 38 153 248 0 147 121 158 0 +113 127 159 160 161 162 51 127 120 0 137 1
13 163 164 +-.115 -.093 -.029 -1 0 0 .004 0 1 0 40 11 154 0 1 11 .00056710408973
3817 .3850210188477935 ??.0681959426066086 -.089 -.029 .0680386444597249 -.08917
95312700487 -.02781508705658835 .0676809673920605 -.0896756738081788 -.026775397
7051231 .0671221992463175 -.0904367362954816 -.0259292217303917 .066312224568562
4 -.0914553105547617 -.0253102934374439 .06486918030138 -.0930299656107105 -.025
000112243803 .0627831520567719 -.0948711446667838 -.02546463330954675 .060693275
5035865 -.0963284329312032 -.0267815468852189 .0601067395315583 -.09668654396559
31 -.02744777785425235 .0596981939555924 -.0969359094419831 -.0282868262031536 .
0596276854613657 -.097 -.02899999999999955 41 1 155 L?.0681959426066086 -.089 -.
029 41 1 156 L?.0596276854613657 -.097 -.02899999999999955 204 44 157 4 5.252098
35768596 .00624625 1474514954580284e-29 -.1831959426066085 5.26319216409803 .005
06133705658834 5.98244409144672 -.183038644459725 5.29205895165818 .004021647705
1231 5.69343855191845 -.1826809673920605 5.33674862077991 .003175471730391715 5.
40794960167376 -.1821221992463175 5.39844687709315 .002556543437443915 5.1088674
1877123 -.1813122245685625 5.49982697489684 .002246362243802995 4.70489750763432
 -.17986918030138 5.63191481210389 .00271088330954673 4.22560465242387 -.1777831
52056772 5.75265756006147 .004027796885218875 3.729490798904025 -.17569327550358
65 5.78514050409209 .00469402785425237 3.54011351118703 -.1751067395315585 5.807
70632463305 .00553307620315358 3.32084449188205 -.1746981939555925 5.81204493801
343 .00624624999999956 3.141592653589905 -.174627685461366 14 137 29 165 ?166 12
6 141 19 127 -0 0 166 126 44 50 163 121 0 166 127 36 0 +.07025065816717 -.0379 -
.001502238900872 .999390827019096 0 .03489949670249985 0 1 0 141 164 121 167 167
 127 141 167 153 164 164 127 14 166 31 168 ?95 137 169 19 163 +0 0 95 137 44 52
 36 127 0 95 163 170 171 +.05 -.0379 -.02275375 0 0 -1 .02099277728762 .03489949
670250095 .999390827019096 0 -1 0 14 95 38 172 ?102 166 173 19 36 +0 0 102 166 4
4 51 170 141 0 102 36 37 174 +-.115 -.03 -.029 -1 0 0 .004 0 1 0 141 171 35 175
 176 36 38 35 262 0 92 100 21 0 +36 37 177 178 179 180 141 175 21 181 171 36 141
 176 158 171 181 36 38 158 254 0 99 153 100 0 +36 170 182 183 184 185 141 181 10
0 176 175 36 38 100 258 0 94 158 35 0 +36 170 186 187 188 189 40 11 186 0 1 11 .
000316430780411132 .3992199900654965 ??.0291507235774717 -.034 -.029 .0292395920
4909685 -.03378020894127175 -.02769232253199455 .02941595716219435 -.03315066929
155005 -.026535596823715 .02969415330820465 -.0321879089941855 -.025651410112724
7 .03008711575324575 -.0309964594619979 -.0251261042166064 .03059710388809895 -.
02968157342387805 -.02501269457959145 .03120476665839845 -.02834689487167545 -.0
2535757725755135 .0318316353712443 -.02714489496382645 -.02619850482198945 .0322
978818652388 -.02631382151385995 -.0274469101222665 .0324469809698821 -.02600705
076681355 -.02876260492592405 .0324417447523111 -.026 -.029 41 1 187 L?.02915072
35774717 -.034 -.029 41 1 188 L?.0324417447523111 -.026 -.029 204 44 189 4 1.755
71614410844 .00624625 3.14159265358978 -.1441507235774716 1.766695872950435 .004
93857253199456 3.47463463406038 -.144239592049097 1.797556751337335 .00378184682
371499 3.80537539433559 -.1444159571621944 1.84501268287711 .00289766011272472 4
.13363979512995 -.1446941533082046 1.904516764357375 .002372354216606385 4.46062
278048895 -.1450871157532458 1.971452587932 .00225894457959147 4.79207994587399
 -.145597103888099 2.041040220141225 .002603827257551355 5.13843803281264 -.1462
047666583984 2.10528960560591 .00344475482198944 5.50726425920853 -.146831635371
2442 2.15033411260744 .00469316012226651 5.88442905974161 -.1472978818652388 2.1
6629188936229 .00600885492592405 6.22380164286119 -.147446980969882 2.1664286128
5104 .00624625 1127570259384924e-29 -.147441744752311 16 99 51 190 ?101 90 94 15
8 0 0 8 40 11 182 0 1 11 .000289010744066208 .361992161551986 ??.067558255247688
9 -.026 -.029 .0676243893989612 -.0261709264880321 -.0278431957642082 .067892188
7055637 -.0266511234745631 -.02681252976765905 .0683216793505396 -.0274265370538
51 -.0259377641395872 .0689002615953027 -.0285635610712307 -.0252668186216156 .0
695323368510278 -.0299953145562148 -.0250000027441739 .0700731260645931 -.031460
11415690325 -.0252760146819824 .0704512492127866 -.03267896823914885 -.026029624
74195065 .0706871879893412 -.03352451551621245 -.02710849520857655 .070818111083
2962 -.0339515902171875 -.0283795688955025 .0708492764225283 -.034 -.029 41 1 18
3 L?.0675582552476889 -.026 -.029 41 1 184 L?.0708492764225283 -.034 -.029 204 4
4 185 4 4.116756694328545 .00624625 1214306433183764e-29 -.182558255247689 4.125
19283809742 .00508944576420821 5.98979317985497 -.182624389398961 4.151131111544
56 .00405877976765907 5.70456714515569 -.1828921887055635 4.19308110339218 .0031
84014139587185 5.41127561136885 -.1833216793505395 4.253565228582745 .0025130686
21615595 5.07970280136347 -.1839002615953025 4.327839713066935 .0022462527441738
75 4.71356034159886 -.184532336851028 4.401941227779785 .0025222646819824 4.3387
25522994875 -.185073126064593 4.46243623918593 .00327587474195065 3.978527597701
675 -.1854512492127865 4.50395390330528 .004354745208576565 3.634144802485565 -.
185687187989341 4.52495303637707 .0056258188955025 3.29732920245819 -.1858181110
83296 4.52746916307115 .00624625 3.14159265358978 -.1858492764225285 81 1 190 32
3 106 99 0 0 191 98 192 16 90 58 191 ?85 193 99 109 0 0 8 81 1 191 322 106 90 0
 0 194 190 195 16 193 43 194 ?196 197 90 198 0 0 8 81 1 194 321 106 193 0 0 199
 191 200 17 196 0 173 80 201 81 202 193 0 203 +16 197 44 199 ?204 205 193 206 0
 0 8 31 255 198 131 0 193 207 206 0 +.05 -.0379 -.044 0 0 1 1 0 0 .0217347126864
3 30 207 128 0 93 208 198 0 +.0297491581112 -.0379 -.0015075 -.03489949670249985
 0 -.999390827019096 31 206 132 0 197 198 209 0 +.05 -.0379 -.0015075 0 0 -1 -1
 0 0 .0202508418888 30 209 146 0 210 206 211 0 +.02826528731357 -.0379 -.044 0 -
1 0 16 210 63 212 ?213 93 214 209 0 0 8 30 211 147 0 215 209 216 0 +.02974915811
12 -.0379 -.0015075 0 -1 0 16 215 64 217 ?218 214 219 211 0 0 8 31 216 150 0 220
 211 221 0 +.05 -.0379 -.0015075 0 0 1 1 0 0 .0182482163357 16 220 70 222 ?223 2
24 225 216 0 0 8 30 221 153 0 224 216 226 0 +.0317517836643 -.0781 -.0015075 0 1
 0 16 224 73 227 ?228 219 220 221 0 0 8 31 226 155 0 229 221 230 0 +.05 -.0781 -
.0015075 0 0 1 -1 0 0 .0182482163357 16 229 75 231 ?232 233 234 226 0 0 8 30 230
 157 0 219 226 235 0 +.0682482163357 -.0379 -.0015075 0 -1 0 16 219 77 236 ?237
 215 224 230 0 0 8 30 235 159 0 233 230 238 0 +.0682482163357 -.0379 -.0015075 -
.0523359562429386 0 .998629534754574 16 233 80 239 ?240 225 229 235 0 0 8 31 238
 161 0 241 235 242 0 +.05 -.0379 .0015075 0 0 1 1 0 0 .01809020688116 16 241 82
 243 ?244 245 246 238 0 0 8 30 242 163 0 234 238 247 0 +.03190979311884 -.0379 .
0015075 -.0523359562429386 0 -.998629534754574 16 234 84 248 ?249 229 250 242 0
 0 8 30 247 165 0 225 242 251 0 +.06809020688116 -.0781 .0015075 .05233595624293
86 0 -.998629534754574 16 225 87 252 ?253 220 233 247 0 0 8 30 251 167 0 245 247
 254 0 +.06809020688116 -.0781 .0015075 0 1 0 16 245 89 255 ?256 250 241 251 0 0
 8 30 254 169 0 250 251 257 0 +.0317517836643 -.0781 -.0015075 .0523359562429386
 0 .998629534754574 16 250 92 258 ?259 234 245 254 0 0 8 31 257 171 0 260 254 26
1 0 +.05 -.0781 .0015075 0 0 1 -1 0 0 .01809020688116 16 260 94 262 ?263 246 0 2
57 0 0 8 30 261 173 0 246 257 48 0 +.03190979311884 -.0379 .0015075 0 -1 0 16 24
6 97 264 ?265 241 260 261 0 0 8 30 48 181 0 24 261 111 0 -.04037231453864 -.097
 -.029 1 0 0 30 111 185 0 145 48 109 0 -.03180405739339 -.089 -.029 1 0 0 81 1 2
64 342 106 246 0 0 243 262 266 17 265 0 267 263 244 268 269 246 0 0 +15 267 99 0
 256 32 0 17 263 0 267 256 265 270 271 260 0 0 +17 244 0 267 265 256 272 273 241
 0 274 +18 268 93 0 271 270 0 60 ?8 17 269 0 275 249 259 272 265 246 0 0 -15 275
 96 0 269 276 0 17 249 0 275 277 269 278 274 234 0 0 +17 259 0 275 269 277 268 2
79 250 0 265 +18 272 83 0 244 280 281 282 ?8 18 280 71 0 283 278 272 284 ?8 18 2
81 81 0 273 272 270 285 ?8 29 282 162 0 272 285 286 .03190979311884 -.0379 .0015
075 29 285 160 0 281 287 282 .06809020688116 -.0379 .0015075 29 286 166 0 270 28
2 60 .06809020688116 -.0781 .0015075 18 270 88 0 288 281 268 286 ?8 29 60 170 0
 268 286 58 .03190979311884 -.0781 .0015075 17 288 0 289 253 240 270 256 245 0 2
90 -15 289 86 0 288 291 0 17 253 0 289 292 288 72 290 225 0 0 +17 240 0 289 288
 292 281 293 233 0 256 +17 256 0 267 244 263 281 288 245 0 0 +17 290 0 294 271 2
32 270 253 225 0 263 -15 294 91 0 232 295 0 17 271 0 294 279 290 268 263 260 0 2
59 -17 232 0 294 290 279 72 296 229 0 237 +17 279 0 294 232 271 297 259 250 0 0
 -18 72 76 0 232 70 297 287 ?8 17 296 0 298 228 237 297 232 229 0 277 -17 237 0
 298 296 283 72 292 219 0 253 +15 298 69 0 237 299 0 17 283 0 298 237 228 280 22
3 220 0 292 -17 292 0 289 240 253 280 237 219 0 293 -17 293 0 300 223 273 280 24
0 233 0 0 -15 300 79 0 223 301 0 17 223 0 300 274 293 278 283 220 0 228 +17 273
 0 300 293 274 281 244 241 0 240 -17 274 0 300 273 223 272 249 234 0 269 -18 278
 72 0 223 297 280 302 ?8 17 228 0 298 283 296 278 277 224 0 249 +17 277 0 275 25
9 249 297 228 224 0 279 -18 297 74 0 296 72 278 303 ?8 29 303 154 0 297 302 287
 .0317517836643 -.0781 -.0015075 29 302 152 0 278 284 303 .0317517836643 -.0379
 -.0015075 29 287 156 0 72 303 285 .0682482163357 -.0781 -.0015075 29 284 151 0
 280 304 302 .0682482163357 -.0379 -.0015075 29 304 130 0 81 82 284 .02826528731
357 -.0379 -.044 18 81 42 0 305 306 75 304 ?8 29 82 129 0 75 307 304 .0297491581
112 -.0379 -.0015075 29 307 124 0 306 308 82 .0702508418888 -.0379 -.0015075 18
 306 35 0 309 310 81 307 ?8 29 308 123 0 310 311 307 .07173471268643 -.0379 -.04
4 18 310 34 0 201 312 306 308 ?8 29 311 116 0 64 313 308 .0297491581112 -.0781 -
.0015075 18 64 23 0 314 61 315 311 ?8 29 313 114 0 315 316 311 .02826528731357 -
.0781 -.044 18 315 21 0 317 64 318 313 ?8 29 316 112 0 312 319 313 .070250841888
8 -.0781 -.0015075 18 312 19 0 320 318 310 316 ?8 29 319 111 0 318 0 316 .071734
71268643 -.0781 -.044 18 318 18 0 321 315 312 319 ?8 17 321 0 169 322 323 318 32
0 151 0 324 -15 169 32 0 323 166 0 17 322 0 169 309 321 310 325 326 0 202 +17 32
3 0 169 321 309 312 327 152 0 0 +17 320 0 138 328 324 312 321 151 0 329 +16 151
 17 330 ?320 331 145 332 0 0 8 17 324 0 138 320 317 318 333 331 0 325 +15 138 16
 0 328 126 334 17 317 0 138 324 328 315 314 214 0 333 -17 333 0 335 203 325 315
 324 331 0 213 -16 331 20 336 ?324 337 151 338 0 0 8 17 325 0 335 333 202 318 32
2 326 0 0 -15 335 66 0 202 339 0 17 202 0 335 325 203 310 196 193 0 0 -16 326 36
 340 ?322 152 205 341 0 0 8 81 1 340 318 106 326 0 0 342 343 344 16 152 37 342 ?
323 147 326 208 0 0 8 16 205 33 343 ?309 326 197 345 0 0 8 30 341 125 0 326 345
 208 0 +.07173471268643 -.0781 -.044 0 1 0 30 345 122 0 205 346 341 0 +.07173471
268643 -.0379 -.044 -.03489949670249985 0 .999390827019096 30 208 126 0 152 341
 207 0 +.0702508418888 -.0379 -.0015075 0 -1 0 31 346 117 0 337 347 345 0 +.05 -
.0781 -.0015075 0 0 -1 1 0 0 .0202508418888 16 337 24 348 ?328 120 331 346 0 0 8
 30 347 115 0 214 338 346 0 +.02826528731357 -.0781 -.044 .03489949670249985 0 .
999390827019096 16 214 22 349 ?314 210 215 347 0 0 8 31 338 113 0 331 332 347 0
 +.05 -.0781 -.044 0 0 1 -1 0 0 .02173471268643 30 332 110 0 151 0 338 0 +.07173
471268643 -.0781 -.044 -.03489949670249985 0 .999390827019096 81 1 349 330 106 2
14 0 0 212 217 350 17 314 0 351 352 213 64 317 214 0 328 +15 351 62 0 352 353 0
 17 352 0 351 305 314 75 218 215 0 0 -17 213 0 351 314 305 315 203 210 0 0 +17 3
28 0 138 317 320 64 329 337 0 218 +17 329 0 354 327 218 312 328 337 0 323 -17 21
8 0 354 329 355 64 352 215 0 0 +15 354 68 0 329 299 298 17 355 0 354 218 327 75
 204 197 0 352 -17 327 0 354 355 329 306 323 152 0 204 -17 204 0 173 201 80 306
 355 197 0 0 +15 173 39 0 204 95 76 17 201 0 173 196 204 310 309 205 0 322 -17 8
0 0 173 204 196 75 305 93 0 355 -17 305 0 351 213 352 81 80 93 0 196 +16 93 40 3
56 ?305 34 210 207 0 0 8 81 1 356 328 106 93 0 0 91 212 357 80 255 1 106 358 359
 9000 1 1 1 1 1 1 1 1 0 FFFFTFTFFFFFFF3 81 1 91 327 106 34 0 0 107 356 360 81 1
 212 329 106 210 0 0 356 349 361 84 255 32 357 40538727e5f548251f8e84326568dfe38
4 32 361 beb07d2d2044c1a3937c4beba32dbf5c81 1 107 326 106 92 0 0 104 91 362 84 3
2 360 30a3fdfae04965f2b4a1217ebec68e2f84 32 362 37445716f1ed7f3a252adfb23905fe23
79 255 15 359 UGS/ObjectState17 309 0 169 323 322 306 201 205 0 327 +14 299 67 3
63 ?301 339 354 19 364 -0 0 301 339 44 81 1 363 368 133 299 365 0 366 367 368 14
 301 78 367 ?291 299 300 19 369 +0 0 291 299 44 14 339 65 366 ?299 353 335 19 37
0 -0 0 299 353 44 50 364 149 0 299 370 369 0 +.05 -.0781 -.0015075 0 0 -1 0 -1 0
 50 370 148 0 339 371 364 0 +0 0 -.044 0 0 1 -1 0 0 52 369 158 0 301 364 372 0 +
.05 -.0379 0 0 0 -1 .01816921160843 .0523359562429438 .998629534754574 0 -1 0 50
 372 164 0 291 369 373 0 +.06808979340236 -.03666975396004 .001515389645404 .998
629534754574 0 .0523359562429386 0 -1 0 14 291 85 374 ?295 301 289 19 372 +0 0 2
95 301 44 52 373 168 0 295 372 33 0 +.05 -.0781 0 0 0 -1 .01816921160843 .052335
9562429438 .998629534754574 0 -1 0 14 295 90 375 ?276 291 294 19 373 +0 0 276 29
1 44 50 33 172 0 276 373 20 0 +.03191020659764 -.03566475396004 .001515389645404
 -.998629534754574 0 .0523359562429386 0 1 0 14 276 95 376 ?32 295 275 19 33 +0
 0 32 295 44 81 1 376 372 133 276 377 0 375 378 379 14 32 98 378 ?0 276 267 19 2
0 +0 0 0 276 44 81 1 378 373 133 32 380 0 376 0 381 80 1 133 0 382 8001 0 0 0 0
 3 5 0 0 0 FFFFTFTFFFFFFF2 81 1 380 358 106 32 0 378 377 0 383 83 255 3 381 .596
0784 .6666667 .6862745 81 1 377 357 106 276 0 376 384 380 385 84 32 383 fecc416d
5c9f4fd2f4daea5414cecb1881 1 384 356 106 295 0 375 386 377 387 84 32 385 a493b33
0d1f4ac072ccd2600e07564b181 1 375 371 133 295 384 0 374 376 388 81 1 386 355 106
 291 0 374 389 384 390 84 32 387 23af47531e5b799e7172b5507d746e5d81 1 374 370 13
3 291 386 0 367 375 391 81 1 389 354 106 301 0 367 365 386 392 84 32 390 1546704
3a4d50995fa4d11c7131e459f81 1 367 369 133 301 389 0 363 374 393 81 1 365 353 106
 299 0 363 394 389 395 84 32 392 3c188c16cc09ba8172603cf181903e9b81 1 394 352 10
6 339 0 366 396 365 397 84 32 395 e86e708a43cbd7f0fb85b30490cb128581 1 366 367 1
33 339 394 0 398 363 399 81 1 396 351 106 353 0 398 400 394 401 84 32 397 f740e4
de5246b005ef275e9be9a0d78b14 353 61 398 ?339 86 351 19 371 +0 0 339 86 44 81 1 3
98 366 133 353 396 0 402 366 403 81 1 400 350 106 86 0 402 404 396 405 84 32 401
 fdb10d400c46c62751f8baf5f092b57e14 86 59 402 ?353 102 83 19 37 -0 0 353 102 44
 81 1 402 365 133 86 400 0 406 398 407 81 1 404 349 106 102 0 406 408 400 409 84
 32 405 ad9f6d9d3da22a3d517255533f5b91fa14 102 55 406 ?86 95 97 19 170 -0 0 86 9
5 44 81 1 406 364 133 102 404 0 172 402 410 81 1 408 348 106 95 0 172 411 404 41
2 84 32 409 4423f60363c820949ffa6c4e9cce7f0b81 1 172 363 133 95 408 0 168 406 41
3 81 1 411 347 106 166 0 168 414 408 415 84 32 412 93b2d2426a78d44581773b200e8e0
02481 1 168 362 133 166 411 0 165 172 416 81 1 414 346 106 137 0 165 417 411 418
 84 32 415 8b823513edd6fedd58335b6b9916e8d281 1 165 361 133 137 414 0 135 168 41
9 81 1 417 345 106 126 0 135 134 414 420 84 32 418 805769356c241c20f8a2b516b7367
dc081 1 135 360 133 126 417 0 130 165 421 81 1 134 344 106 30 0 130 262 417 422
 84 32 420 775924e89e1d425c4796461af95670f281 1 262 343 106 260 0 0 264 134 423
 84 32 422 cd844515c696cb4bf00d2de2464f692084 32 423 5f4903837e3e39dab44a19c54f2
7b52583 3 421 .5960784 .6666667 .6862745 83 3 419 .5960784 .6666667 .6862745 83
 3 416 .5960784 .6666667 .6862745 83 3 413 .5960784 .6666667 .6862745 83 3 410 .
5960784 .6666667 .6862745 83 3 407 .5960784 .6666667 .6862745 51 37 144 0 86 170
 371 424 +-.115 -.03 -.029 -1 0 0 .004 0 1 0 50 371 145 0 353 37 370 0 +.0297493
4183283 -.0781 -.001502238900872 -.999390827019096 0 .03489949670249985 0 -1 0 1
41 424 35 425 425 37 141 425 21 424 424 37 83 3 403 .5960784 .6666667 .6862745 8
3 3 399 .5960784 .6666667 .6862745 83 3 393 .5960784 .6666667 .6862745 83 3 391
 .5960784 .6666667 .6862745 83 3 388 .5960784 .6666667 .6862745 79 15 382 SDL/TY
SA_COLOUR83 3 379 .5960784 .6666667 .6862745 83 3 368 .5960784 .6666667 .6862745
 17 203 0 335 202 333 81 213 210 0 0 -81 1 217 331 106 215 0 0 349 236 426 84 32
 350 b32d1c53b1bf702ce5cff391976badf281 1 236 332 106 219 0 0 217 227 427 84 32
 426 673a0a7e527b32b70a6798ed7bd9c67e81 1 227 333 106 224 0 0 236 222 428 84 32
 427 04094923e8e5c9084b93b6db391604a081 1 222 334 106 220 0 0 227 252 429 84 32
 428 6ba763a663b3d82e4344638c0820213081 1 252 335 106 225 0 0 222 239 430 84 32
 429 3f0c656b0ec59c5db4f8511abfb120c981 1 239 336 106 233 0 0 252 231 431 84 32
 430 9ceb5125e65d4c73e999e0bd37b4369a81 1 231 337 106 229 0 0 239 248 432 84 32
 431 6470326e4de5c007e6e7b371b6ea1c5281 1 248 338 106 234 0 0 231 258 433 84 32
 432 a11e7261ba1d8b938a03ef873c356db381 1 258 339 106 250 0 0 248 255 434 84 32
 433 63317325fbc187843d64b539b356bfb481 1 255 340 106 245 0 0 258 243 435 84 32
 434 3abcbc6e0dcc3c78097e07bcdc0c45a481 1 243 341 106 241 0 0 255 264 436 84 32
 435 c8e3a693de89f0eda3b30409f48825ae84 32 436 349957a15eedaff7f60a3292ffd41d518
1 1 348 311 106 337 0 0 437 336 438 16 120 7 437 ?63 47 337 112 0 0 8 81 1 437 3
10 106 120 0 0 119 348 439 81 1 119 309 106 47 0 0 45 437 440 84 32 439 41112335
da48c749ad30ac423beef11281 1 45 308 106 24 0 0 0 119 441 84 32 440 d003fc5f42e75
b37f186bde3667a551884 32 441 3ab21b4bbbac47baab0a52f22439e0e981 1 336 312 106 33
1 0 0 348 330 442 84 32 438 11c497f46243b69a958e6e35a479c96c81 1 330 313 106 151
 0 0 336 148 443 84 32 442 de85f20f5823b83c207d090b8fdcf13981 1 148 314 106 145
 0 0 330 146 444 84 32 443 ebec402fb7e6339df890cb8cf5adb0ed84 32 444 87c1f09ec8d
935e0a8924656554215f981 1 343 319 106 205 0 0 340 199 445 81 1 199 320 106 197 0
 0 343 194 446 84 32 445 54a2bd37013444b0e7cbdb85173cd3e284 32 446 a1c3ddfea9e3e
9cbb1025455166cce3581 1 342 317 106 152 0 0 149 340 447 81 1 149 316 106 147 0 0
 146 342 448 84 32 447 9c2b079ad4fc3b7ebcc19651cfa56c1984 32 448 44c1c229d5ae4f9
71c8720191621800584 32 344 d564c39c181a8c45f7f4a7b02613c90215 334 25 0 140 126 5
2 17 140 0 334 143 143 57 63 120 0 142 -15 52 27 0 49 126 0 17 143 0 334 140 140
 61 142 147 0 0 -17 142 0 141 56 46 57 143 147 0 0 +84 32 266 1b08ae94450029bf25
c25ca97df577d784 32 200 ea444604ef69d130b2af5a51369f87f384 32 195 ea487749e23beb
27900c5adb65f9157d81 1 98 324 106 94 0 0 190 104 449 84 32 192 05f4c321aa79f7028
86e3793b1984faa84 32 449 a4234ca260a10887bf01887b77f2cf2e40 11 177 0 1 11 .00031
6087752815247 .3777520975229585 ??.0708492764225283 -.034 -.029 .070853835707219
6 -.0337836559904767 -.030297669967954 .0707623235746159 -.03315986617628245 -.0
314525997936855 .0705545655856992 -.032211088713423 -.03233332967187065 .0702165
987139446 -.03104962847800855 -.03285982901929005 .0697438542219942 -.0297748409
212917 -.0329936578958738 .0691441656144476 -.0284715401732453 -.032696459191983
2 .068468766201493 -.0272633156406247 -.0319172861904775 .06787439016833 -.02637
151880538265 -.0306834857351069 .0676074962470955 -.0260383905414923 -.029552856
67063205 .0675582552476889 -.026 -.029 41 1 178 L?.0708492764225283 -.034 -.029
 41 1 179 L?.0675582552476889 -.026 -.029 204 44 180 4 4.52746916307115 .0062462
5 3.14159265358978 -.1858492764225285 4.51750404263153 .00754391996795402 2.8111
9680556666 -.1858538357072195 4.48793141405624 .00869884979368548 2.481550758258
795 -.185762323574616 4.44237686817271 .00957957967187066 2.156483526208785 -.18
5554565585699 4.38568268846758 .01010607901929002 1.83631222162103 -.18521659871
39445 4.321983900624035 .0102399078958738 1.514476788605755 -.1847438542219945 4
.2547611075168 .00994270919198319 1.178712480380286 -.1841441656144475 4.1898573
6932896 .00916353619047748 .817329784385609 -.183468766201493 4.1395565058768 .0
0792973573510688 .434405765772948 -.18287439016833 4.11955484526125 .00679910667
063204 .1386580486043464 -.1826074962470955 4.116756694328545 .00624625 12143064
33183764e-29 -.182558255247689 141 174 158 450 450 170 141 450 100 174 174 170 4
0 11 159 0 1 11 .00039175216111934 .3883497641214505 ??.04037231453863425 -.097
 -.02899999999999955 .0403208678660119 -.0969486215078555 -.02836094742962635 .0
4002917930826475 -.0967681303374195 -.0276579143990718 .0392756846321409 -.09630
90191904565 -.02675269227803785 .03756510984586355 -.0951376436877765 -.02561910
07906018 .0356576796701573 -.0935385125677036 -.02503641523183555 .0340610991476
967 -.0918905281938043 -.02515694492476925 .03301484528397605 -.0906164210486078
 -.02578774979453965 .03235002188230085 -.089718855812553 -.0267121860169186 .03
19261166147139 -.0891328531108595 -.0279776620236872 .0318040573933914 -.089 -.0
29 41 1 160 L?.04037231453863425 -.097 -.02899999999999955 41 1 161 L?.031804057
3933914 -.089 -.029 204 44 162 4 .471140369166157 .00624624999999956 3.141592653
589905 -.1553723145386345 .474404512653138 .00560719742962634 3.30204336254361 -
.155320867866012 .490561202247059 .00490416439907178 3.483751313461255 -.1550291
793082645 .532259506828154 .003998942278037875 3.738185227092585 -.1542756846321
41 .630478590962724 .0028653507906018 4.14857833531223 -.1525651098458635 .74860
612419342 .00228266523183555 4.57735080199551 -.1506576796701575 .85753694039576
5 .002403194924769245 4.99344246438301 -.1490610991476966 .935729760125407 .0030
3399979453964 5.35076832624465 -.148014845283976 .988613351698375 .0039584360169
1861 5.67429994252399 -.147350021882301 1.022742481862304 .00522391202368721 6.0
2473307828087 -.146926116614714 1.031086949493624 .00624625 1474514954580284e-29
 -.1468040573933914 17 66 0 131 63 54 57 56 145 0 140 +84 32 150 59cbcc079a15a6b
f3dda6c57c29b854783 3 136 .5960784 .6666667 .6862745 141 128 112 451 452 113 141
 451 153 453 128 113 141 452 110 128 453 113 141 453 121 452 451 113 40 12 122 0
 1 12 .000450875308651591 .3443895993321455 ??.0318040573933914 -.089 -.029 .031
86036714437975 -.0891712722322654 -.03015794804744355 .03212106104432645 -.08965
41847006544 -.03119214962597565 .0325798417259022 -.0903856154613451 -.032027374
02447105 .03327100892124645 -.0913459277364527 -.0326419836555047 .0345326480038
5775 -.0928174132107297 -.03299583058504535 .03646478215151065 -.094596953755124
6 -.0326673885400914 .0385061237958362 -.0960349208781668 -.0316056199383769 .03
939751375645025 -.0965455173995082 -.03085183864572065 .0401266467559449 -.09690
67117616092 -.02985883829194115 .04034925960655915 -.0969955962502393 -.02918764
489088115 .0403723145386338 -.097 -.0289999999999995 41 1 123 L?.031804057393391
4 -.089 -.029 41 1 124 L?.0403723145386338 -.097 -.0289999999999995 204 48 125 4
 1.031086949493624 .00624625 1474514954580284e-29 -.1468040573933914 1.022811418
38804 .00740419804744353 .29369085840981 -.1468603671443798 .997064969440813 .00
843839962597563 .580016103257078 -.1471210610443264 .956553683737855 .0092736240
2447107 .858470090539051 -.1475798417259022 .901078633926225 .00988823365550471
 1.14448173860074 -.1482710089212464 .810237996743471 .01024208058504536 1.52513
37628598 -.1495326480038578 .687097248829146 .00991363854009137 1.98148239196779
5 -.1514647821515105 .569927118552089 .0088518699383769 2.432157927665325 -.1535
06123795836 .521684077341017 .00809808864572067 2.660261309459545 -.154397513756
4505 .483439897389996 .00710508829194114 2.925198195583945 -.155126646755945 .47
2202796562514 .00643389489088116 3.09466420784419 -.155349259606559 .47114036916
6176 .00624624999999949 3.141592653589925 -.155372314538634 17 71 0 83 85 84 70
 69 92 0 103 +17 69 0 96 103 103 67 71 92 0 101 -17 103 0 96 69 69 70 101 99 0 8
9 -15 96 50 0 69 95 0 17 89 0 97 101 79 70 85 90 0 0 -84 32 108 8161fb295e9002f8
15c6dfd00b5a5d1119 31 1 0 8 0 23 19 S0 40 11 38 0 1 11 .000293246897574027 .3716
79587979323 ??.03244174475231115 -.026 -.029 .03227052273672385 -.02618110422995
145 -.0301899727297318 .03190751361131125 -.02668052650968665 -.0312318368549486
5 .03138396290617005 -.02750804985910025 -.0321289270517655 .0307274824871467 -.
0287289359422678 -.0327926766486403 .03007888686018935 -.0302196550918493 -.0329
9396440152195 .02959395341353675 -.03166293423918525 -.03263794580995175 .029306
31892365785 -.03281082299190875 -.0318459223650966 .029168883339055 -.0335885931
599287 -.0307669179756042 .0291387183314758 -.0339671857559248 -.029511309278213
8 .0291507235774717 -.034 -.029 41 1 39 L?.03244174475231115 -.026 -.029 41 1 40
 L?.0291507235774717 -.034 -.029 204 44 41 4 2.16642861285104 .00624625 12143064
33183764e-29 -.1474417447523112 2.15485425402328 .00743622272973178 .30206587711
8052 -.147270522736724 2.12587716598523 .00847808685494863 .591924592510429 -.14
69075136113112 2.079932903419255 .00937517705176548 .898240159729718 -.146383962
90617 2.014947968309185 .0100389266486403 1.2474238770624 -.1457274824871466 1.9
38773580857335 .01024021440152196 1.62573773622859 -.1450788868601892 1.86742661
394265 .00988419580995175 1.999545546066885 -.1445939534135368 1.81193983820612
 .0090921723650966 2.349989699179805 -.144306318923658 1.77488430708372 .0080131
6797560418 2.684067124879215 -.144168883339055 1.75713155564349 .006757559278213
78 3.013414636573535 -.1441387183314758 1.75571614410844 .00624625 3.14159265358
978 -.1441507235774716 74 4 CI16 index_map_offset0 0 1 dCCZ20 29 4 0 0 27 380 37
8 17 0 0 0 0 0 0 0 0 0 0 0 0 0 0 0 0 81 2 27 305 454 8 0 17 0 0 455 456 80 2 454
 457 458 8004 0 0 0 0 3 5 0 0 0 FFTFFFFFFFFFFF2 3 83 1 455 7830.64 84 8 456 Kg/C
u M 79 16 458 SDL/TYSA_DENSITY80 1 26 459 460 9000 0 0 0 0 3 5 0 0 0 FFTFFFFFFFF
FFF1 82 255 1 28 129 79 24 460 UG2/BODY_COLOR_ATTRIBUTE81 1 6 322 26 3 461 0 0 0
 462 70 7 0 4 T3 0 0 4 20 1 463 463 13 9 4 0 3 0 464 0 0 465 0 50 10 138 0 466 4
67 0 0 +0 0 .044 0 0 1 -1 0 0 38 11 232 0 468 469 0 0 +470 467 471 472 473 474 2
9 12 234 0 475 476 0 .0291507235774717 -.034 .029 19 13 2 0 3 465 0 477 V0 16 14
 17 478 ?479 0 480 481 0 0 3 18 15 13 0 482 0 483 484 ?3 17 482 0 485 486 487 15
 488 489 0 490 +18 483 11 0 487 15 491 492 ?3 29 484 87 0 15 492 493 .0319097931
1884 -.0379 .0015075 29 492 85 0 483 494 484 .06809020688116 -.0379 .0015075 29
 493 91 0 495 484 496 .0702508418888 -.0379 .0015075 18 495 18 0 497 498 499 493
 ?3 29 496 92 0 499 493 500 .0702508418888 -.0781 .0015075 18 499 19 0 501 495 5
02 496 ?3 29 500 94 0 498 496 503 .0297491581112 -.0379 .0015075 18 498 21 0 504
 505 495 500 ?3 29 503 96 0 505 500 506 .0297491581112 -.0781 .0015075 18 505 23
 0 507 508 498 503 ?3 29 506 100 0 509 503 510 .07173471268643 -.07809999997553
 .044 18 509 29 0 511 502 512 506 ?3 29 510 102 0 502 506 513 .07173471268643 -.
03790000002447 .044 18 502 31 0 514 499 509 510 ?3 29 513 106 0 512 510 515 .028
26528731357 -.07809999992659 .044 18 512 36 0 516 509 517 513 ?3 29 515 122 0 51
8 513 519 .02826528731357 -.03790000002447 .044 18 518 57 0 520 521 522 515 ?3 2
9 519 207 0 523 515 524 .0596276854613658 -.097 .02899999999999955 18 523 46 0 5
25 526 521 519 ?3 29 524 208 0 521 519 527 .0681959426066086 -.089 .029 18 521 4
5 0 528 523 518 524 ?3 29 527 213 0 517 524 529 .0318040573933914 -.089 .029 18
 517 41 0 530 512 526 527 ?3 29 529 214 0 526 527 531 .04037231453863425 -.097 .
02899999999999955 18 526 40 0 532 517 523 529 ?3 29 531 227 0 533 529 534 .07084
92764225283 -.034 .029 18 533 70 0 535 475 536 531 ?3 29 534 228 0 536 531 476 .
0675582552476889 -.026 .029 18 536 69 0 537 533 0 534 ?3 29 476 233 0 522 534 12
 .03244174475231115 -.026 .029 18 522 65 0 538 518 475 476 ?3 17 538 0 539 540 5
40 522 541 468 0 542 -18 475 64 0 541 522 533 12 ?3 17 541 0 543 544 545 475 538
 468 0 540 +15 543 77 0 544 546 0 17 544 0 543 537 541 533 547 548 0 0 -17 545 0
 543 541 537 522 549 550 0 0 +16 468 66 551 ?541 552 553 11 0 0 3 17 540 0 539 5
38 538 475 542 554 0 547 -15 539 62 0 538 555 556 17 542 0 557 549 547 522 540 5
54 0 545 +16 554 63 558 ?542 559 548 560 0 0 3 17 547 0 557 542 561 475 544 548
 0 0 +15 557 73 0 549 562 0 17 561 0 557 547 549 533 563 559 0 544 +16 548 74 56
4 ?547 554 552 565 0 0 3 81 1 564 295 106 548 0 0 558 566 567 16 552 71 566 ?537
 548 468 469 0 0 3 30 565 177 0 548 568 569 0 -.02915072357747 -.034 .029 1 0 0
 30 568 175 0 550 570 565 0 -.03244174475231 -.026 .029 1 0 0 38 569 198 0 571 5
65 572 0 +573 574 575 576 577 578 16 571 44 579 ?580 581 582 569 0 0 3 38 572 20
2 0 582 569 583 0 +573 574 584 585 586 587 52 573 104 0 588 589 574 590 +.05 -.0
781 .02275375 0 0 1 .02099277728762 .03489949670250095 .999390827019096 0 1 0 51
 574 116 0 591 573 592 593 +-.115 -.093 .029 -1 0 0 .004 0 1 0 40 12 575 0 1 12
 .000450875308651597 .344389599332142 ??.0681959426066086 -.089 .029 .0681396328
556203 -.0891712722322654 .03015794804744355 .0678789389556736 -.089654184700654
4 .03119214962597565 .0674201582740978 -.0903856154613451 .03202737402447105 .06
67289910787536 -.0913459277364527 .0326419836555047 .0654673519961423 -.09281741
32107297 .03299583058504535 .0635352178484894 -.0945969537551246 .03266738854009
14 .0614938762041638 -.0960349208781668 .0316056199383769 .0606024862435498 -.09
65455173995082 .0308518386457207 .0598733532440551 -.0969067117616092 .029858838
29194115 .0596507403934409 -.0969955962502393 .02918764489088115 .05962768546136
62 -.097 .0289999999999995 41 1 576 L?.0681959426066086 -.089 .029 41 1 577 L?.0
596276854613662 -.097 .0289999999999995 204 48 578 4 4.17267960308342 .00624625
 6.28318530717957 -.1831959426066085 4.164404071977835 .00740419804744353 5.9894
9444876978 -.1831396328556205 4.138657623030605 .00843839962597563 5.70316920392
251 -.1828789389556735 4.09814633732765 .00927362402447107 5.42471521664054 -.18
2420158274098 4.04267128751602 .00988823365550471 5.13870356857885 -.18172899107
87535 3.951830650333265 .01024208058504536 4.75805154431979 -.1804673519961425 3
.82868990241894 .00991363854009138 4.301702915211795 -.1785352178484895 3.711519
772141885 .00885186993837691 3.85102737951427 -.176493876204164 3.66327673093081
 .00809808864572069 3.622923997720045 -.17560248624355 3.62503255097979 .0071050
8829194116 3.357987111595645 -.174873353244055 3.613795450152305 .00643389489088
117 3.1885210993354 -.174650740393441 3.61273302275597 .00624624999999949 3.1415
92653589665 -.174627685461366 14 591 48 594 ?595 588 596 9 574 -0 0 595 588 477
 51 592 119 0 595 574 597 598 +-.115 -.093 .029 -1 0 0 .004 0 1 0 141 593 569 59
9 599 574 141 599 572 593 593 574 14 595 52 600 ?601 591 602 9 592 -0 0 601 591
 477 50 597 120 0 601 592 470 0 +.02974934183283 -.0379 .001502238900872 -.99939
0827019096 0 -.03489949670249985 0 1 0 141 598 583 603 603 592 38 583 206 0 604
 572 605 0 +573 592 606 607 608 609 141 603 605 598 598 592 38 605 212 0 610 583
 611 0 +573 592 612 613 614 615 16 610 42 616 ?532 604 617 605 0 0 3 38 611 218
 0 559 605 560 0 +470 618 619 620 621 622 40 11 612 0 1 11 .000567104089733799 .
385021018847802 ??.0318040573933914 -.089 .029 .03196135554027505 -.089179531270
0487 .02781508705658835 .0323190326079395 -.0896756738081788 .0267753977051231 .
03287780075368255 -.0904367362954816 .0259292217303917 .0336877754314376 -.09145
53105547617 .0253102934374439 .03513081969862 -.0930299656107105 .02500011224380
3 .03721684794322815 -.0948711446667838 .02546463330954675 .0393067244964135 -.0
963284329312032 .02678154688521885 .03989326046844175 -.096686543965593 .0274477
7785425235 .04030180604440755 -.0969359094419831 .02828682620315355 .04037231453
863425 -.097 .02899999999999955 41 1 613 L?.0318040573933914 -.089 .029 41 1 614
 L?.04037231453863425 -.097 .02899999999999955 204 44 615 4 2.11050570409617 .00
624625 6.28318530717957 -.1468040573933914 2.12159951050823 .00506133705658834 .
300741215732871 -.146961355540275 2.15046629806838 .0040216477051231 .5897467552
61141 -.1473190326079394 2.195155967190115 .00317547173039172 .875235705505822 -
.1478778007536826 2.256854223503355 .002556543437443915 1.174317888408356 -.1486
877754314376 2.35823432130705 .002246362243802995 1.57828779954527 -.15013081969
862 2.490322158514095 .002710883309546735 2.05758065475572 -.152216847943228 2.6
11064906471675 .00402779688521887 2.55369450827556 -.1543067244964135 2.64354785
05023 .00469402785425236 2.74307179599255 -.1548932604684415 2.66611367104326 .0
0553307620315356 2.962340815297535 -.1553018060444075 2.670452284423635 .0062462
4999999956 3.141592653589685 -.1553723145386345 16 559 68 623 ?561 550 554 611 0
 0 3 38 560 222 0 554 611 469 0 +470 618 624 625 626 627 52 470 124 0 555 597 61
8 628 +.05 -.0379 .02275375 0 0 1 .02099277728762 .03489949670250095 .9993908270
19096 0 1 0 51 618 134 0 562 470 467 629 +-.115 -.03 .029 -1 0 0 .004 0 1 0 40 1
1 619 0 1 11 .0002932468975740325 .37167958797932 ??.0675582552476889 -.026 .029
 .0677294772632762 -.02618110422995145 .0301899727297318 .0680924863886888 -.026
68052650968665 .03123183685494865 .06861603709383 -.02750804985910025 .032128927
0517655 .0692725175128533 -.0287289359422678 .0327926766486403 .0699211131398107
 -.03021965509184935 .03299396440152195 .0704060465864633 -.03166293423918525 .0
3263794580995175 .0706936810763421 -.03281082299190875 .0318459223650966 .070831
116660945 -.0335885931599287 .0307669179756042 .0708612816685242 -.0339671857559
248 .0295113092782138 .0708492764225283 -.034 .029 41 1 620 L?.0675582552476889
 -.026 .029 41 1 621 L?.0708492764225283 -.034 .029 204 44 622 4 5.3080212664408
3 .00624625 6.28318530717957 -.182558255247689 5.29644690761307 .007436222729731
78 5.98111943006153 -.182729477263276 5.26746981957502 .00847808685494863 5.6912
6071466916 -.183092486388689 5.22152555700905 .00937517705176548 5.3849451474498
7 -.18361603709383 5.15654062189898 .0100389266486403 5.03576143011719 -.1842725
175128535 5.08036623444713 .01024021440152196 4.657447570951 -.1849211131398105
 5.00901926753244 .00988419580995175 4.283639761112705 -.1854060465864635 4.9535
3249179591 .0090921723650966 3.933195607999785 -.185693681076342 4.9164769606735
1 .00801316797560418 3.59911818230037 -.185831116660945 4.89872420923329 .006757
55927821379 3.26977067060605 -.185861281668524 4.89730879769823 .00624625 3.1415
9265358981 -.1858492764225285 14 562 72 630 ?546 555 557 9 618 -0 0 546 555 477
 51 467 137 0 546 618 10 631 +-.115 -.03 .029 -1 0 0 .004 0 1 0 141 629 611 632
 632 618 141 632 560 629 629 618 14 546 76 633 ?466 562 543 9 467 -0 0 466 562 4
77 141 631 469 634 634 467 38 469 226 0 552 560 11 0 +470 467 635 636 637 638 14
1 634 11 631 631 467 40 11 635 0 1 11 .000316430780411132 .3992199900654975 ??.0
708492764225283 -.034 .029 .0707604079509032 -.03378020894127175 .02769232253199
455 .0705840428378057 -.03315066929155 .026535596823715 .0703058466917954 -.0321
8790899418545 .0256514101127247 .0699128842467543 -.0309964594619979 .0251261042
166064 .0694028961119011 -.02968157342387805 .02501269457959145 .068795233341601
6 -.02834689487167545 .02535757725755135 .0681683646287557 -.02714489496382645 .
02619850482198945 .0677021181347612 -.02631382151385995 .0274469101222665 .06755
30190301179 -.02600705076681355 .02876260492592405 .0675582552476889 -.026 .029
 41 1 636 L?.0708492764225283 -.034 .029 41 1 637 L?.0675582552476889 -.026 .029
 204 44 638 4 4.89730879769823 .00624625 3.14159265358981 -.1858492764225285 4.9
0828852654023 .00493857253199455 2.808550673119205 -.185760407950903 4.939149404
92713 .003781846823714985 2.477809912843995 -.1855840428378055 4.98660533646691
 .002897660112724715 2.149545512049635 -.1853058466917955 5.04610941794717 .0023
72354216606385 1.822562526690635 -.1849128842467545 5.1130452415218 .00225894457
959147 1.491105361305592 -.184402896111901 5.18263287373102 .002603827257551355
 1.144747274366944 -.1837952333416015 5.2468822591957 .00344475482198944 .775921
047971058 -.1831683646287555 5.29192676619723 .00469316012226651 .39875624743797
6 -.182702118134761 5.30788454295208 .00600885492592405 .0593836643183993 -.1825
53019030118 5.30802126644083 .00624625 6.28318530717958 -.182558255247689 81 1 6
33 320 133 546 639 0 630 640 641 14 466 78 640 ?0 546 642 9 10 +0 0 0 546 477 13
 477 3 0 0 0 0 0 0 13 464 14 464 5 643 ?644 0 645 9 646 -0 0 644 0 477 81 1 643
 311 133 464 647 0 0 648 649 14 644 15 648 ?650 464 651 9 652 -0 0 650 464 477 1
5 645 6 0 490 464 0 50 646 80 0 464 0 652 0 +-.05 -.0379 .0015075 0 0 1 0 1 0 50
 652 89 0 644 646 589 0 +.05 -.0379 .0015075 0 0 1 0 1 0 50 589 98 0 650 652 573
 0 +.07025065816717 -.0781 .001502238900872 .999390827019096 0 -.034899496702499
85 0 -1 0 14 650 26 653 ?588 644 654 9 589 +0 0 588 644 477 81 1 653 313 133 650
 655 0 648 656 657 14 588 33 656 ?591 650 658 9 573 +0 0 591 650 477 15 654 27 0
 659 650 0 17 659 0 654 660 661 495 479 14 0 662 -17 660 0 654 511 659 502 662 6
63 0 664 +17 661 0 654 659 511 499 665 666 0 0 +17 479 0 651 667 497 499 659 14
 0 661 +17 662 0 668 504 664 495 660 663 0 0 -15 668 60 0 504 555 539 17 504 0 6
68 669 662 498 497 670 0 671 +17 664 0 668 662 669 502 672 673 0 0 +16 663 32 67
4 ?660 675 666 676 0 0 3 81 1 674 277 106 663 0 0 677 678 679 16 675 7 677 ?680
 681 663 682 0 0 3 16 666 28 678 ?661 663 683 684 0 0 3 30 676 103 0 663 685 686
 0 +.0702508418888 -.0379 .0015075 .03489949670249985 -575528003878598e-24 .9993
90827019096 30 685 101 0 687 684 676 0 +.07173471268643 -.07809999997553 .044 0
 1 0 30 686 105 0 688 676 689 0 +.02826528731357 -.07809999997553 .044 .03489949
670249985 -575529507906198e-24 -.999390827019096 16 688 35 690 ?691 692 581 686
 0 0 3 31 689 107 0 692 686 693 0 +.05 -.0781 .044 0 0 -1 1 337768726714e-20 0 .
02173471268643 16 692 37 694 ?695 683 688 689 0 0 3 30 693 121 0 696 689 697 0 +
.02826528731357 -.03790000002447 .044 .03489949670249985 575539033413898e-24 -.9
99390827019096 16 696 56 698 ?699 617 670 693 0 0 3 30 697 123 0 553 693 700 0 +
.02826528731357 -.03790000002447 .044 0 -1 0 16 553 58 701 ?702 468 687 697 0 0
 3 31 700 125 0 673 697 703 0 +.05 -.0379 .044 0 0 -1 -1 -3377684651812e-21 0 .0
2173471268643 16 673 61 704 ?664 670 550 700 0 0 3 30 703 147 0 581 700 570 0 +.
03180405739339 -.089 .029 1 0 0 16 581 51 705 ?706 688 571 703 0 0 3 30 570 149
 0 707 703 568 0 +.04037231453864 -.097 .029 1 0 0 16 707 50 708 ?709 582 604 57
0 0 0 3 81 1 708 285 106 707 0 0 710 711 712 17 709 0 602 528 532 523 713 707 0
 0 +16 582 39 710 ?714 571 707 572 0 0 3 16 604 47 711 ?528 707 610 583 0 0 3 81
 1 711 286 106 604 0 0 708 616 715 17 528 0 602 716 709 521 525 604 0 717 +15 60
2 53 0 709 595 0 17 716 0 602 532 528 517 706 581 0 0 -17 525 0 718 717 717 523
 528 604 0 580 -17 717 0 718 525 525 521 580 571 0 706 -15 718 43 0 525 588 0 17
 580 0 596 713 706 523 717 571 0 709 +17 706 0 596 580 714 521 716 581 0 0 +15 5
96 49 0 706 591 0 17 714 0 596 706 713 517 719 582 0 716 +17 713 0 596 714 580 5
26 709 707 0 0 -17 719 0 720 530 530 526 714 582 0 713 -15 720 38 0 530 588 718
 17 530 0 720 719 719 517 532 610 0 714 -17 532 0 602 709 716 526 530 610 0 719
 +81 1 616 287 106 610 0 0 711 721 722 84 32 715 928e519da5ccd6c15b503b25d488bd3
281 1 721 288 106 617 0 0 616 698 723 84 32 722 9ed0865980825e6b103e429d13436d19
16 617 22 721 ?507 610 696 724 0 0 3 81 1 698 289 106 696 0 0 721 725 726 84 32
 723 a45eb327ce02b2efc73ac004ef61470f81 1 725 290 106 670 0 0 698 704 727 84 32
 726 8615f18ce19ffa029632dd17a2261f3816 670 20 725 ?504 696 673 728 0 0 3 81 1 7
04 291 106 673 0 0 725 729 730 84 32 727 db9a8af0de27c5143a28454e7fe1cdfc81 1 72
9 292 106 550 0 0 704 623 731 84 32 730 ae7af06b527e90f0af76012aa343a55a16 550 7
5 729 ?545 673 559 568 0 0 3 81 1 623 293 106 559 0 0 729 558 732 84 32 731 1a2d
47b5156d69276558f8a26e9f3ec981 1 558 294 106 554 0 0 623 564 733 84 32 732 d722f
e1bd09997f7c5117708a4ec58de84 32 733 8caee7dddb6e23208d05d3dcec5e0eac31 728 93 0
 670 481 724 0 +.05 -.0379 .0015075 0 0 1 1 0 0 .0202508418888 30 481 90 0 14 73
4 728 0 +.0702508418888 -.0379 .0015075 0 -1 0 30 724 95 0 617 728 735 0 +.02974
91581112 -.0379 .0015075 0 -1 0 31 735 97 0 683 724 684 0 +.05 -.0781 .0015075 0
 0 1 -1 0 0 .0202508418888 16 683 24 736 ?501 666 692 735 0 0 3 30 684 99 0 666
 735 685 0 +.07173471268643 -.07809999997553 .044 -.03489949670249985 -575539868
984798e-24 -.999390827019096 81 1 736 279 106 683 0 0 678 694 737 17 501 0 658 6
65 691 499 667 683 0 479 +15 658 34 0 501 588 720 17 665 0 658 695 501 509 661 6
66 0 738 -17 691 0 658 501 695 505 516 688 0 0 +17 667 0 651 671 479 505 501 683
 0 691 -15 651 16 0 667 644 485 17 671 0 651 497 667 498 507 617 0 699 -17 497 0
 651 479 671 495 504 670 0 659 -17 507 0 739 516 699 505 671 617 0 667 +17 699 0
 739 507 520 498 669 696 0 0 +15 739 55 0 507 601 0 17 520 0 739 699 516 518 702
 553 0 669 -17 669 0 668 664 504 518 699 696 0 672 -17 672 0 642 702 514 518 664
 673 0 0 -15 642 79 0 672 466 0 17 702 0 642 738 672 512 520 553 0 0 +17 514 0 6
42 672 738 502 511 687 0 660 +17 738 0 642 514 702 509 695 692 0 0 -17 511 0 654
 661 660 509 514 687 0 665 -16 687 30 740 ?514 553 0 685 0 0 3 81 1 740 299 106
 687 0 0 701 647 741 81 1 701 298 106 553 0 0 551 740 742 81 1 647 300 106 464 0
 643 740 743 744 84 32 741 2aa0fb7990539fd68d2740cb4effa33181 1 743 301 106 644
 0 648 647 655 745 84 32 744 379d538bf3be72c72b7ce60a210b33f381 1 648 312 133 64
4 743 0 643 653 746 81 1 655 302 106 650 0 653 743 747 748 84 32 745 6018d45be40
143b7b4326ed43786365481 1 747 303 106 588 0 656 655 749 750 84 32 748 61fa069aa5
c8afe277304e1b3a11e30581 1 656 314 133 588 747 0 653 594 751 81 1 749 304 106 59
1 0 594 747 752 753 84 32 750 3a254506253d5e7a0bfb1bda322e1d7b81 1 594 315 133 5
91 749 0 656 600 754 81 1 752 305 106 595 0 600 749 755 756 84 32 753 0f7955d2a8
e24bfd942f8d3678e5884681 1 600 316 133 595 752 0 594 757 758 81 1 755 306 106 60
1 0 757 752 759 760 84 32 756 786bab2748192de9ac913d5a03286b8714 601 54 757 ?555
 595 739 9 597 +0 0 555 595 477 81 1 757 317 133 601 755 0 600 761 762 81 1 759
 307 106 555 0 761 755 763 764 84 32 760 360225fdd176ee1201ad79c122ce3fe414 555
 59 761 ?562 601 668 9 470 +0 0 562 601 477 81 1 761 318 133 555 759 0 757 630 7
65 81 1 763 308 106 562 0 630 759 639 766 84 32 764 695669be400961cb8799c243713f
f85481 1 630 319 133 562 763 0 761 633 767 81 1 639 309 106 546 0 633 763 768 76
9 84 32 766 690a01b932f85b2800d2b3cad5be885581 1 768 310 106 466 0 640 639 0 770
 84 32 769 f013fd2cda1aa8387dcba65cb1eb09b881 1 640 321 133 466 768 0 633 0 771
 84 32 770 f73607a6162560c42b3f83b5311373f983 3 771 .5960784 .6666667 .6862745 8
3 3 767 .5960784 .6666667 .6862745 83 3 765 .5960784 .6666667 .6862745 83 3 762
 .5960784 .6666667 .6862745 83 3 758 .5960784 .6666667 .6862745 83 3 754 .596078
4 .6666667 .6862745 83 3 751 .5960784 .6666667 .6862745 83 3 746 .5960784 .66666
67 .6862745 81 1 551 297 106 468 0 0 566 701 772 84 32 742 aa1169f3073ea0c73e129
ae6e2e45fe681 1 566 296 106 552 0 0 564 551 773 84 32 772 b3376690e028a4a1393ff7
6c3c854b6e84 32 773 8a11bb497ae1b62ecd420443928b35af17 695 0 658 691 665 512 738
 692 0 702 +17 516 0 739 520 507 512 691 688 0 695 -15 485 25 0 487 644 0 17 487
 0 485 482 680 483 774 480 0 488 +17 680 0 485 487 486 491 775 675 0 774 +17 774
 0 645 775 488 491 487 480 0 0 -16 480 10 776 ?487 14 489 777 0 0 3 17 488 0 645
 774 490 483 482 489 0 0 -17 490 0 645 488 775 15 486 681 0 0 -16 489 12 778 ?48
2 480 681 779 0 0 3 81 1 778 274 106 489 0 0 776 780 781 16 681 14 780 ?486 489
 675 734 0 0 3 134 255 779 86 0 489 777 734 0 +782 783 30 777 84 0 480 682 779 0
 +.06809020688116 -.0781 .0015075 0 1 0 30 734 88 0 681 779 481 0 +.031909793118
84 -.0379 .0015075 0 -1 0 136 255 782 3 15 3 13 4 FFF1 784 785 786 135 255 783 2
 0 45 255 45 784 .06809020688116 -.0379 .0015075 .06808320567373 -.0362861238596
4 .0015075 .06767779581762 -.03318047882224 .0015075 .06584569430428 -.028746597
90859 .0015075 .06293889927808 -.02496250889994 .0015075 .05914895633583 -.02205
311873925 .0015075 .05473589602208 -.02022554383027 .0015075 .05 -.0196019177631
3 .0015075 .04526410397792 -.02022554383027 .0015075 .04085104366417 -.022053118
73925 .0015075 .03706110072192 -.02496250889994 .0015075 .03415430569572 -.02874
659790859 .0015075 .03232220418238 -.03318047882224 .0015075 .03191679432627 -.0
3628612385964 .0015075 .03190979311884 -.0379 .0015075 127 255 13 785 4 1 1 1 1
 1 1 1 1 1 1 1 4 128 255 13 786 0 .08333333333333 .1666666666667 .25 .3333333333
333 .4166666666667 .5 .5833333333333 .6666666666667 .75 .8333333333333 .91666666
66667 1 134 682 81 0 675 0 777 0 +787 788 136 787 3 15 3 13 4 FFF1 789 790 791 1
35 788 2 0 45 45 789 .03190979311884 -.0781 .0015075 .03191679432627 -.079713876
14036 .0015075 .03232220418238 -.08281952117776 .0015075 .03415430569572 -.08725
340209141 .0015075 .03706110072192 -.09103749110006 .0015075 .04085104366417 -.0
9394688126075 .0015075 .04526410397792 -.09577445616973 .0015075 .05 -.096398082
23687 .0015075 .05473589602208 -.09577445616973 .0015075 .05914895633583 -.09394
688126075 .0015075 .06293889927808 -.09103749110006 .0015075 .06584569430428 -.0
8725340209141 .0015075 .06767779581762 -.08281952117776 .0015075 .06808320567373
 -.07971387614036 .0015075 .06809020688116 -.0781 .0015075 127 13 790 4 1 1 1 1
 1 1 1 1 1 1 1 4 128 13 791 0 .08333333333333 .1666666666667 .25 .3333333333333
 .4166666666667 .5 .5833333333333 .6666666666667 .75 .8333333333333 .91666666666
67 1 81 1 780 275 106 681 0 0 778 677 792 17 486 0 485 680 482 508 490 681 0 0 +
18 508 8 0 775 491 505 793 ?3 17 775 0 645 490 774 508 680 675 0 486 -18 491 9 0
 680 483 508 494 ?3 29 793 82 0 508 0 494 .03190979311884 -.0781 .0015075 29 494
 83 0 491 793 492 .06809020688116 -.0781 .0015075 81 1 677 276 106 675 0 0 780 6
74 794 84 32 792 1b08ae94450029bf25c25ca97df577d784 32 794 10a59685fd75400ecbe07
d523cd1279981 1 776 273 106 480 0 0 478 778 795 84 32 781 3c039fa6e02c1118f445e4
e8589adfe381 1 478 272 106 14 0 0 0 776 796 84 32 795 c8e3a693de89f0eda3b30409f4
8825ae84 32 796 b2b0cd682dbb8cbbac6634a691ba7e0781 1 678 278 106 666 0 0 674 736
 797 81 1 694 280 106 692 0 0 736 690 798 84 32 737 6827f3b3a86ca4c82213e648d2c1
398b81 1 690 281 106 688 0 0 694 705 799 84 32 798 31fa839fd711e9a9606ffcab3ef98
99d81 1 705 282 106 581 0 0 690 579 800 84 32 799 33e13d0544d66b6e456b593549620e
e581 1 579 283 106 571 0 0 705 710 801 84 32 800 9bcb1e3d4204fb659b4bbe7b7e92b80
c81 1 710 284 106 582 0 0 579 708 802 84 32 801 979b28057ed83b885c4280fc1504127b
84 32 802 eae4ba85436a896af5260380f0558acf84 32 797 f7436fd69d2b657ca3646a9a1d45
534684 32 712 6b6774e84714e5d1f5d510240e13a94f84 32 679 65b0687dccd5daf0c1d65c3f
591edeaa83 3 657 .5960784 .6666667 .6862745 83 3 649 .5960784 .6666667 .6862745
 83 3 641 .5960784 .6666667 .6862745 141 628 469 803 804 470 141 803 11 805 628
 470 141 804 611 628 805 470 141 805 560 804 803 470 40 11 624 0 1 11 .000316087
7528152445 .3777520975229555 ??.0291507235774717 -.034 .029 .0291461642927804 -.
0337836559904767 .030297669967954 .02923767642538415 -.03315986617628245 .031452
5997936855 .0294454344143008 -.032211088713423 .03233332967187065 .0297834012860
554 -.03104962847800855 .03285982901929005 .0302561457780058 -.0297748409212917
 .0329936578958738 .0308558343855524 -.0284715401732453 .0326964591919832 .03153
1233798507 -.0272633156406247 .03191728619047745 .03212560983167 -.0263715188053
8265 .0306834857351069 .0323925037529045 -.0260383905414923 .02955285667063205 .
03244174475231115 -.026 .029 41 1 625 L?.0291507235774717 -.034 .029 41 1 626 L?
.03244174475231115 -.026 .029 204 44 627 4 1.385876509481354 .00624625 3.1415926
5358981 -.1441507235774716 1.375911389041736 .00754391996795402 3.47198850161292
5 -.1441461642927804 1.346338760466444 .00869884979368548 3.80163454892079 -.144
237676425384 1.300784214582914 .00957957967187066 4.126701780970805 -.1444454344
143008 1.244090034877784 .01010607901929002 4.446873085558555 -.1447834012860554
 1.180391247034242 .0102399078958738 4.76870851857383 -.1452561457780058 1.11316
8453927006 .00994270919198319 5.1044728267993 -.1458558343855524 1.0482647157391
64 .00916353619047747 5.46585552279398 -.146531233798507 .997963852287006 .00792
973573510689 5.84877954140664 -.14712560983167 .977962191671456 .006799106670632
05 6.14452725857524 -.1473925037529044 .975164040738754 .00624625 6.283185307179
57 -.1474417447523112 40 11 606 0 1 11 .00039175216111934 .3883497641214445 ??.0
596276854613657 -.097 .02899999999999955 .0596791321339881 -.0969486215078555 .0
2836094742962635 .0599708206917353 -.0967681303374195 .0276579143990718 .0607243
153678591 -.0963090191904565 .02675269227803785 .0624348901541365 -.095137643687
7765 .0256191007906018 .0643423203298427 -.0935385125677036 .02503641523183555 .
0659389008523033 -.0918905281938043 .02515694492476925 .066985154716024 -.090616
4210486078 .02578774979453965 .0676499781176992 -.089718855812553 .0267121860169
1865 .0680738833852861 -.0891328531108595 .02797766202368725 .0681959426066086 -
.089 .029 41 1 607 L?.0596276854613657 -.097 .02899999999999955 41 1 608 L?.0681
959426066086 -.089 .029 204 44 609 4 3.61273302275595 .00624624999999956 3.14159
2653589685 -.174627685461366 3.61599716624293 .00560719742962634 2.9811419446359
75 -.174679132133988 3.63215385583685 .00490416439907178 2.79943399371833 -.1749
708206917355 3.673852160417945 .003998942278037875 2.545000080087005 -.175724315
367859 3.772071244552515 .0028653507906018 2.134606971867355 -.1774348901541365
 3.890198777783215 .00228266523183555 1.70583450518407 -.1793423203298425 3.9991
2959398556 .002403194924769255 1.289742842796564 -.1809389008523035 4.0773224137
152 .003033999794539655 .932416980934929 -.181985154716024 4.13020600528817 .003
958436016918645 .608885364655586 -.182649978117699 4.1643351354521 .005223912023
68723 .2584522288987095 -.183073883385286 4.17267960308342 .00624625 6.283185307
17957 -.1831959426066085 141 590 583 806 807 573 141 806 605 808 590 573 141 807
 569 590 808 573 141 808 572 807 806 573 40 11 584 0 1 11 .000634493120543069 .3
98449471658996 ??.04037231453863425 -.097 .02899999999999955 .0401996670421478 -
.0969385523073251 .0296984309002789 .039700024429029 -.0967026253178625 .0305134
615143847 .0384833538917241 -.0960209784978129 .03162177209454825 .0362322931551
921 -.09440695025416 .0327443946082537 .0340611264224687 -.0923024066062974 .032
93870073210245 .0330133154888588 -.0910036576011273 .0324662107590946 .032339402
0551008 -.0900146165720356 .0316622332332152 .0319168830898816 -.089284910391002
1 .03048260217088595 .0317985349369142 -.0890087813342683 .02926490292998555 .03
180405739339135 -.089 .029 41 1 585 L?.04037231453863425 -.097 .0289999999999995
5 41 1 586 L?.03180405739339135 -.089 .029 204 44 587 4 2.670452284423635 .00624
624999999956 3.141592653589685 -.1553723145386345 2.661894301344045 .00694468090
027889 3.3171000126247 -.155199667042148 2.635925453869705 .00775971151438472 3.
529622406066775 -.154700024429029 2.57041244913084 .00886802209454824 3.85636172
107692 -.153483353891724 2.440426050519205 .00999064460825367 4.35296234685629 -
.151232293155192 2.298647177822655 .01018495073210246 4.88768370017366 -.1490611
264224686 2.22043453198634 .00971246075909461 5.23493221891909 -.148013315488858
8 2.16430138978549 .00890848323321521 5.55494368270793 -.1473394020551008 2.1247
2792681819 .00772885217088593 5.9034759514212 -.1469168830898816 2.1107269664875
1 .00651115292998553 6.21691106956205 -.1467985349369142 2.110505704096165 .0062
4625 6.28318530717957 -.1468040573933914 17 537 0 543 545 544 536 535 552 0 563
 +17 535 0 556 563 563 533 537 552 0 561 -17 563 0 556 535 535 536 561 559 0 549
 -15 556 67 0 535 555 0 17 549 0 557 561 542 536 545 550 0 0 -84 32 567 6ca6c487
dc0f5f2c49ef6e2f4cd4197819 465 1 0 3 0 13 9 S0 40 11 471 0 1 11 .000289010744066
2045 .361992161551985 ??.03244174475231115 -.026 .029 .03237561060103885 -.02617
09264880321 .0278431957642082 .0321078112944363 -.0266511234745631 .026812529767
65905 .0316783206494604 -.027426537053851 .0259377641395872 .03109973840469735 -
.0285635610712307 .0252668186216156 .03046766314897225 -.0299953145562148 .02500
00027441739 .02992687393540695 -.03146011415690325 .0252760146819824 .0295487507
872134 -.03267896823914885 .02602962474195065 .0293128120106588 -.03352451551621
245 .02710849520857655 .0291818889167038 -.0339515902171875 .0283795688955025 .0
291507235774717 -.034 .029 41 1 472 L?.03244174475231115 -.026 .029 41 1 473 L?.
0291507235774717 -.034 .029 204 44 474 4 .975164040738754 .00624625 6.2831853071
7957 -.1474417447523112 .983600184507627 .00508944576420821 .2933921273246195 -.
147375610601039 1.00953845795477 .00405877976765907 .578618162023902 -.147107811
2944362 1.051488449802386 .003184014139587185 .871909695810742 -.146678320649460
4 1.11197257499295 .002513068621615595 1.20348250581612 -.1460997384046974 1.186
247059477142 .002246252744173875 1.569624965580725 -.1454676631489722 1.26034857
418999 .0025222646819824 1.94445978418471 -.144926873935407 1.320843585596134 .0
0327587474195065 2.304657709477915 -.1445487507872134 1.362361249715486 .0043547
45208576565 2.64904050469402 -.1443128120106588 1.383360382787276 .0056258188955
0251 2.985856104721395 -.1441818889167038 1.385876509481354 .00624625 3.14159265
358981 -.1441507235774716 74 20 463 4 0 0 461 768 640 6 0 0 0 0 0 0 0 0 0 0 0 0
 0 0 0 0 81 2 461 269 454 3 0 6 0 0 809 810 83 1 809 7830.64 84 8 810 Kg/Cu M 82
 1 462 129 1 0 
